<svg xmlns="http://www.w3.org/2000/svg" width="1026.782" height="454.168" viewBox="0 0 1026.782 454.168"><g transform="translate(12475 9859.549)"><path d="M88.611,21.989a7.271,7.271,0,0,0-6.049,3.067s-8.553,11.559-23.2,11.559-23.2-11.559-23.2-11.559A7.277,7.277,0,0,0,24.4,33.633S37.075,51.156,59.358,51.156,94.319,33.633,94.319,33.633a7.271,7.271,0,0,0-5.708-11.644Z" transform="translate(-12497.999 -9881.537)" fill="#77e4eb"/><path d="M88.611,21.989a7.271,7.271,0,0,0-6.049,3.067s-8.553,11.559-23.2,11.559-23.2-11.559-23.2-11.559A7.277,7.277,0,0,0,24.4,33.633S37.075,51.156,59.358,51.156,94.319,33.633,94.319,33.633a7.271,7.271,0,0,0-5.708-11.644Z" transform="translate(-12391.999 -9881.537)" fill="#77e4eb"/><path d="M88.611,21.989a7.271,7.271,0,0,0-6.049,3.067s-8.553,11.559-23.2,11.559-23.2-11.559-23.2-11.559A7.277,7.277,0,0,0,24.4,33.633S37.075,51.156,59.358,51.156,94.319,33.633,94.319,33.633a7.271,7.271,0,0,0-5.708-11.644Z" transform="translate(-12285.999 -9881.537)" fill="#77e4eb"/><path d="M88.611,21.989a7.271,7.271,0,0,0-6.049,3.067s-8.553,11.559-23.2,11.559-23.2-11.559-23.2-11.559A7.277,7.277,0,0,0,24.4,33.633S37.075,51.156,59.358,51.156,94.319,33.633,94.319,33.633a7.271,7.271,0,0,0-5.708-11.644Z" transform="translate(-12179.999 -9881.537)" fill="#77e4eb"/><path d="M88.611,21.989a7.271,7.271,0,0,0-6.049,3.067s-8.553,11.559-23.2,11.559-23.2-11.559-23.2-11.559A7.277,7.277,0,0,0,24.4,33.633S37.075,51.156,59.358,51.156,94.319,33.633,94.319,33.633a7.271,7.271,0,0,0-5.708-11.644Z" transform="translate(-12073.999 -9881.537)" fill="#77e4eb"/><path d="M88.611,21.989a7.271,7.271,0,0,0-6.049,3.067s-8.553,11.559-23.2,11.559-23.2-11.559-23.2-11.559A7.277,7.277,0,0,0,24.4,33.633S37.075,51.156,59.358,51.156,94.319,33.633,94.319,33.633a7.271,7.271,0,0,0-5.708-11.644Z" transform="translate(-11967.999 -9881.537)" fill="#77e4eb"/><path d="M88.611,21.989a7.271,7.271,0,0,0-6.049,3.067s-8.553,11.559-23.2,11.559-23.2-11.559-23.2-11.559A7.277,7.277,0,0,0,24.4,33.633S37.075,51.156,59.358,51.156,94.319,33.633,94.319,33.633a7.271,7.271,0,0,0-5.708-11.644Z" transform="translate(-11861.999 -9881.537)" fill="#77e4eb"/><path d="M88.611,21.989a7.271,7.271,0,0,0-6.049,3.067s-8.553,11.559-23.2,11.559-23.2-11.559-23.2-11.559A7.277,7.277,0,0,0,24.4,33.633S37.075,51.156,59.358,51.156,94.319,33.633,94.319,33.633a7.271,7.271,0,0,0-5.708-11.644Z" transform="translate(-11755.999 -9881.537)" fill="#77e4eb"/><path d="M88.611,21.989a7.271,7.271,0,0,0-6.049,3.067s-8.553,11.559-23.2,11.559-23.2-11.559-23.2-11.559A7.277,7.277,0,0,0,24.4,33.633S37.075,51.156,59.358,51.156,94.319,33.633,94.319,33.633a7.271,7.271,0,0,0-5.708-11.644Z" transform="translate(-11649.999 -9881.537)" fill="#77e4eb"/><path d="M88.611,21.989a7.271,7.271,0,0,0-6.049,3.067s-8.553,11.559-23.2,11.559-23.2-11.559-23.2-11.559A7.277,7.277,0,0,0,24.4,33.633S37.075,51.156,59.358,51.156,94.319,33.633,94.319,33.633a7.271,7.271,0,0,0-5.708-11.644Z" transform="translate(-11543.999 -9881.537)" fill="#77e4eb"/><path d="M88.611,21.989a7.271,7.271,0,0,0-6.049,3.067s-8.553,11.559-23.2,11.559-23.2-11.559-23.2-11.559A7.277,7.277,0,0,0,24.4,33.633S37.075,51.156,59.358,51.156,94.319,33.633,94.319,33.633a7.271,7.271,0,0,0-5.708-11.644Z" transform="translate(-12497.999 -9796.537)" fill="#77e4eb"/><path d="M88.611,21.989a7.271,7.271,0,0,0-6.049,3.067s-8.553,11.559-23.2,11.559-23.2-11.559-23.2-11.559A7.277,7.277,0,0,0,24.4,33.633S37.075,51.156,59.358,51.156,94.319,33.633,94.319,33.633a7.271,7.271,0,0,0-5.708-11.644Z" transform="translate(-12391.999 -9796.537)" fill="#77e4eb"/><path d="M88.611,21.989a7.271,7.271,0,0,0-6.049,3.067s-8.553,11.559-23.2,11.559-23.2-11.559-23.2-11.559A7.277,7.277,0,0,0,24.4,33.633S37.075,51.156,59.358,51.156,94.319,33.633,94.319,33.633a7.271,7.271,0,0,0-5.708-11.644Z" transform="translate(-12285.999 -9796.537)" fill="#77e4eb"/><path d="M88.611,21.989a7.271,7.271,0,0,0-6.049,3.067s-8.553,11.559-23.2,11.559-23.2-11.559-23.2-11.559A7.277,7.277,0,0,0,24.4,33.633S37.075,51.156,59.358,51.156,94.319,33.633,94.319,33.633a7.271,7.271,0,0,0-5.708-11.644Z" transform="translate(-12179.999 -9796.537)" fill="#77e4eb"/><path d="M88.611,21.989a7.271,7.271,0,0,0-6.049,3.067s-8.553,11.559-23.2,11.559-23.2-11.559-23.2-11.559A7.277,7.277,0,0,0,24.4,33.633S37.075,51.156,59.358,51.156,94.319,33.633,94.319,33.633a7.271,7.271,0,0,0-5.708-11.644Z" transform="translate(-12073.999 -9796.537)" fill="#77e4eb"/><path d="M88.611,21.989a7.271,7.271,0,0,0-6.049,3.067s-8.553,11.559-23.2,11.559-23.2-11.559-23.2-11.559A7.277,7.277,0,0,0,24.4,33.633S37.075,51.156,59.358,51.156,94.319,33.633,94.319,33.633a7.271,7.271,0,0,0-5.708-11.644Z" transform="translate(-11967.999 -9796.537)" fill="#77e4eb"/><path d="M88.611,21.989a7.271,7.271,0,0,0-6.049,3.067s-8.553,11.559-23.2,11.559-23.2-11.559-23.2-11.559A7.277,7.277,0,0,0,24.4,33.633S37.075,51.156,59.358,51.156,94.319,33.633,94.319,33.633a7.271,7.271,0,0,0-5.708-11.644Z" transform="translate(-11861.999 -9796.537)" fill="#77e4eb"/><path d="M88.611,21.989a7.271,7.271,0,0,0-6.049,3.067s-8.553,11.559-23.2,11.559-23.2-11.559-23.2-11.559A7.277,7.277,0,0,0,24.4,33.633S37.075,51.156,59.358,51.156,94.319,33.633,94.319,33.633a7.271,7.271,0,0,0-5.708-11.644Z" transform="translate(-11755.999 -9796.537)" fill="#77e4eb"/><path d="M88.611,21.989a7.271,7.271,0,0,0-6.049,3.067s-8.553,11.559-23.2,11.559-23.2-11.559-23.2-11.559A7.277,7.277,0,0,0,24.4,33.633S37.075,51.156,59.358,51.156,94.319,33.633,94.319,33.633a7.271,7.271,0,0,0-5.708-11.644Z" transform="translate(-11649.999 -9796.537)" fill="#77e4eb"/><path d="M88.611,21.989a7.271,7.271,0,0,0-6.049,3.067s-8.553,11.559-23.2,11.559-23.2-11.559-23.2-11.559A7.277,7.277,0,0,0,24.4,33.633S37.075,51.156,59.358,51.156,94.319,33.633,94.319,33.633a7.271,7.271,0,0,0-5.708-11.644Z" transform="translate(-11543.999 -9796.537)" fill="#77e4eb"/><path d="M88.611,21.989a7.271,7.271,0,0,0-6.049,3.067s-8.553,11.559-23.2,11.559-23.2-11.559-23.2-11.559A7.277,7.277,0,0,0,24.4,33.633S37.075,51.156,59.358,51.156,94.319,33.633,94.319,33.633a7.271,7.271,0,0,0-5.708-11.644Z" transform="translate(-12497.999 -9711.537)" fill="#77e4eb"/><path d="M88.611,21.989a7.271,7.271,0,0,0-6.049,3.067s-8.553,11.559-23.2,11.559-23.2-11.559-23.2-11.559A7.277,7.277,0,0,0,24.4,33.633S37.075,51.156,59.358,51.156,94.319,33.633,94.319,33.633a7.271,7.271,0,0,0-5.708-11.644Z" transform="translate(-12391.999 -9711.537)" fill="#77e4eb"/><path d="M88.611,21.989a7.271,7.271,0,0,0-6.049,3.067s-8.553,11.559-23.2,11.559-23.2-11.559-23.2-11.559A7.277,7.277,0,0,0,24.4,33.633S37.075,51.156,59.358,51.156,94.319,33.633,94.319,33.633a7.271,7.271,0,0,0-5.708-11.644Z" transform="translate(-12285.999 -9711.537)" fill="#77e4eb"/><path d="M88.611,21.989a7.271,7.271,0,0,0-6.049,3.067s-8.553,11.559-23.2,11.559-23.2-11.559-23.2-11.559A7.277,7.277,0,0,0,24.4,33.633S37.075,51.156,59.358,51.156,94.319,33.633,94.319,33.633a7.271,7.271,0,0,0-5.708-11.644Z" transform="translate(-12179.999 -9711.537)" fill="#77e4eb"/><path d="M88.611,21.989a7.271,7.271,0,0,0-6.049,3.067s-8.553,11.559-23.2,11.559-23.2-11.559-23.2-11.559A7.277,7.277,0,0,0,24.4,33.633S37.075,51.156,59.358,51.156,94.319,33.633,94.319,33.633a7.271,7.271,0,0,0-5.708-11.644Z" transform="translate(-12073.999 -9711.537)" fill="#77e4eb"/><path d="M88.611,21.989a7.271,7.271,0,0,0-6.049,3.067s-8.553,11.559-23.2,11.559-23.2-11.559-23.2-11.559A7.277,7.277,0,0,0,24.4,33.633S37.075,51.156,59.358,51.156,94.319,33.633,94.319,33.633a7.271,7.271,0,0,0-5.708-11.644Z" transform="translate(-11967.999 -9711.537)" fill="#77e4eb"/><path d="M88.611,21.989a7.271,7.271,0,0,0-6.049,3.067s-8.553,11.559-23.2,11.559-23.2-11.559-23.2-11.559A7.277,7.277,0,0,0,24.4,33.633S37.075,51.156,59.358,51.156,94.319,33.633,94.319,33.633a7.271,7.271,0,0,0-5.708-11.644Z" transform="translate(-11861.999 -9711.537)" fill="#77e4eb"/><path d="M88.611,21.989a7.271,7.271,0,0,0-6.049,3.067s-8.553,11.559-23.2,11.559-23.2-11.559-23.2-11.559A7.277,7.277,0,0,0,24.4,33.633S37.075,51.156,59.358,51.156,94.319,33.633,94.319,33.633a7.271,7.271,0,0,0-5.708-11.644Z" transform="translate(-11755.999 -9711.537)" fill="#77e4eb"/><path d="M88.611,21.989a7.271,7.271,0,0,0-6.049,3.067s-8.553,11.559-23.2,11.559-23.2-11.559-23.2-11.559A7.277,7.277,0,0,0,24.4,33.633S37.075,51.156,59.358,51.156,94.319,33.633,94.319,33.633a7.271,7.271,0,0,0-5.708-11.644Z" transform="translate(-11649.999 -9711.537)" fill="#77e4eb"/><path d="M88.611,21.989a7.271,7.271,0,0,0-6.049,3.067s-8.553,11.559-23.2,11.559-23.2-11.559-23.2-11.559A7.277,7.277,0,0,0,24.4,33.633S37.075,51.156,59.358,51.156,94.319,33.633,94.319,33.633a7.271,7.271,0,0,0-5.708-11.644Z" transform="translate(-11543.999 -9711.537)" fill="#77e4eb"/><path d="M88.611,21.989a7.271,7.271,0,0,0-6.049,3.067s-8.553,11.559-23.2,11.559-23.2-11.559-23.2-11.559A7.277,7.277,0,0,0,24.4,33.633S37.075,51.156,59.358,51.156,94.319,33.633,94.319,33.633a7.271,7.271,0,0,0-5.708-11.644Z" transform="translate(-12497.999 -9626.537)" fill="#77e4eb"/><path d="M88.611,21.989a7.271,7.271,0,0,0-6.049,3.067s-8.553,11.559-23.2,11.559-23.2-11.559-23.2-11.559A7.277,7.277,0,0,0,24.4,33.633S37.075,51.156,59.358,51.156,94.319,33.633,94.319,33.633a7.271,7.271,0,0,0-5.708-11.644Z" transform="translate(-12391.999 -9626.537)" fill="#77e4eb"/><path d="M88.611,21.989a7.271,7.271,0,0,0-6.049,3.067s-8.553,11.559-23.2,11.559-23.2-11.559-23.2-11.559A7.277,7.277,0,0,0,24.4,33.633S37.075,51.156,59.358,51.156,94.319,33.633,94.319,33.633a7.271,7.271,0,0,0-5.708-11.644Z" transform="translate(-12285.999 -9626.537)" fill="#77e4eb"/><path d="M88.611,21.989a7.271,7.271,0,0,0-6.049,3.067s-8.553,11.559-23.2,11.559-23.2-11.559-23.2-11.559A7.277,7.277,0,0,0,24.4,33.633S37.075,51.156,59.358,51.156,94.319,33.633,94.319,33.633a7.271,7.271,0,0,0-5.708-11.644Z" transform="translate(-12179.999 -9626.537)" fill="#77e4eb"/><path d="M88.611,21.989a7.271,7.271,0,0,0-6.049,3.067s-8.553,11.559-23.2,11.559-23.2-11.559-23.2-11.559A7.277,7.277,0,0,0,24.4,33.633S37.075,51.156,59.358,51.156,94.319,33.633,94.319,33.633a7.271,7.271,0,0,0-5.708-11.644Z" transform="translate(-12073.999 -9626.537)" fill="#77e4eb"/><path d="M88.611,21.989a7.271,7.271,0,0,0-6.049,3.067s-8.553,11.559-23.2,11.559-23.2-11.559-23.2-11.559A7.277,7.277,0,0,0,24.4,33.633S37.075,51.156,59.358,51.156,94.319,33.633,94.319,33.633a7.271,7.271,0,0,0-5.708-11.644Z" transform="translate(-11967.999 -9626.537)" fill="#77e4eb"/><path d="M88.611,21.989a7.271,7.271,0,0,0-6.049,3.067s-8.553,11.559-23.2,11.559-23.2-11.559-23.2-11.559A7.277,7.277,0,0,0,24.4,33.633S37.075,51.156,59.358,51.156,94.319,33.633,94.319,33.633a7.271,7.271,0,0,0-5.708-11.644Z" transform="translate(-11861.999 -9626.537)" fill="#77e4eb"/><path d="M88.611,21.989a7.271,7.271,0,0,0-6.049,3.067s-8.553,11.559-23.2,11.559-23.2-11.559-23.2-11.559A7.277,7.277,0,0,0,24.4,33.633S37.075,51.156,59.358,51.156,94.319,33.633,94.319,33.633a7.271,7.271,0,0,0-5.708-11.644Z" transform="translate(-11755.999 -9626.537)" fill="#77e4eb"/><path d="M88.611,21.989a7.271,7.271,0,0,0-6.049,3.067s-8.553,11.559-23.2,11.559-23.2-11.559-23.2-11.559A7.277,7.277,0,0,0,24.4,33.633S37.075,51.156,59.358,51.156,94.319,33.633,94.319,33.633a7.271,7.271,0,0,0-5.708-11.644Z" transform="translate(-11649.999 -9626.537)" fill="#77e4eb"/><path d="M88.611,21.989a7.271,7.271,0,0,0-6.049,3.067s-8.553,11.559-23.2,11.559-23.2-11.559-23.2-11.559A7.277,7.277,0,0,0,24.4,33.633S37.075,51.156,59.358,51.156,94.319,33.633,94.319,33.633a7.271,7.271,0,0,0-5.708-11.644Z" transform="translate(-11543.999 -9626.537)" fill="#77e4eb"/><path d="M88.611,21.989a7.271,7.271,0,0,0-6.049,3.067s-8.553,11.559-23.2,11.559-23.2-11.559-23.2-11.559A7.277,7.277,0,0,0,24.4,33.633S37.075,51.156,59.358,51.156,94.319,33.633,94.319,33.633a7.271,7.271,0,0,0-5.708-11.644Z" transform="translate(-12497.999 -9541.537)" fill="#77e4eb"/><path d="M88.611,21.989a7.271,7.271,0,0,0-6.049,3.067s-8.553,11.559-23.2,11.559-23.2-11.559-23.2-11.559A7.277,7.277,0,0,0,24.4,33.633S37.075,51.156,59.358,51.156,94.319,33.633,94.319,33.633a7.271,7.271,0,0,0-5.708-11.644Z" transform="translate(-12391.999 -9541.537)" fill="#77e4eb"/><path d="M88.611,21.989a7.271,7.271,0,0,0-6.049,3.067s-8.553,11.559-23.2,11.559-23.2-11.559-23.2-11.559A7.277,7.277,0,0,0,24.4,33.633S37.075,51.156,59.358,51.156,94.319,33.633,94.319,33.633a7.271,7.271,0,0,0-5.708-11.644Z" transform="translate(-12285.999 -9541.537)" fill="#77e4eb"/><path d="M88.611,21.989a7.271,7.271,0,0,0-6.049,3.067s-8.553,11.559-23.2,11.559-23.2-11.559-23.2-11.559A7.277,7.277,0,0,0,24.4,33.633S37.075,51.156,59.358,51.156,94.319,33.633,94.319,33.633a7.271,7.271,0,0,0-5.708-11.644Z" transform="translate(-12179.999 -9541.537)" fill="#77e4eb"/><path d="M88.611,21.989a7.271,7.271,0,0,0-6.049,3.067s-8.553,11.559-23.2,11.559-23.2-11.559-23.2-11.559A7.277,7.277,0,0,0,24.4,33.633S37.075,51.156,59.358,51.156,94.319,33.633,94.319,33.633a7.271,7.271,0,0,0-5.708-11.644Z" transform="translate(-12073.999 -9541.537)" fill="#77e4eb"/><path d="M88.611,21.989a7.271,7.271,0,0,0-6.049,3.067s-8.553,11.559-23.2,11.559-23.2-11.559-23.2-11.559A7.277,7.277,0,0,0,24.4,33.633S37.075,51.156,59.358,51.156,94.319,33.633,94.319,33.633a7.271,7.271,0,0,0-5.708-11.644Z" transform="translate(-11967.999 -9541.537)" fill="#77e4eb"/><path d="M88.611,21.989a7.271,7.271,0,0,0-6.049,3.067s-8.553,11.559-23.2,11.559-23.2-11.559-23.2-11.559A7.277,7.277,0,0,0,24.4,33.633S37.075,51.156,59.358,51.156,94.319,33.633,94.319,33.633a7.271,7.271,0,0,0-5.708-11.644Z" transform="translate(-11861.999 -9541.537)" fill="#77e4eb"/><path d="M88.611,21.989a7.271,7.271,0,0,0-6.049,3.067s-8.553,11.559-23.2,11.559-23.2-11.559-23.2-11.559A7.277,7.277,0,0,0,24.4,33.633S37.075,51.156,59.358,51.156,94.319,33.633,94.319,33.633a7.271,7.271,0,0,0-5.708-11.644Z" transform="translate(-11755.999 -9541.537)" fill="#77e4eb"/><path d="M88.611,21.989a7.271,7.271,0,0,0-6.049,3.067s-8.553,11.559-23.2,11.559-23.2-11.559-23.2-11.559A7.277,7.277,0,0,0,24.4,33.633S37.075,51.156,59.358,51.156,94.319,33.633,94.319,33.633a7.271,7.271,0,0,0-5.708-11.644Z" transform="translate(-11649.999 -9541.537)" fill="#77e4eb"/><path d="M88.611,21.989a7.271,7.271,0,0,0-6.049,3.067s-8.553,11.559-23.2,11.559-23.2-11.559-23.2-11.559A7.277,7.277,0,0,0,24.4,33.633S37.075,51.156,59.358,51.156,94.319,33.633,94.319,33.633a7.271,7.271,0,0,0-5.708-11.644Z" transform="translate(-11543.999 -9541.537)" fill="#77e4eb"/><path d="M88.611,21.989a7.271,7.271,0,0,0-6.049,3.067s-8.553,11.559-23.2,11.559-23.2-11.559-23.2-11.559A7.277,7.277,0,0,0,24.4,33.633S37.075,51.156,59.358,51.156,94.319,33.633,94.319,33.633a7.271,7.271,0,0,0-5.708-11.644Z" transform="translate(-12497.999 -9456.537)" fill="#77e4eb"/><path d="M88.611,21.989a7.271,7.271,0,0,0-6.049,3.067s-8.553,11.559-23.2,11.559-23.2-11.559-23.2-11.559A7.277,7.277,0,0,0,24.4,33.633S37.075,51.156,59.358,51.156,94.319,33.633,94.319,33.633a7.271,7.271,0,0,0-5.708-11.644Z" transform="translate(-12391.999 -9456.537)" fill="#77e4eb"/><path d="M88.611,21.989a7.271,7.271,0,0,0-6.049,3.067s-8.553,11.559-23.2,11.559-23.2-11.559-23.2-11.559A7.277,7.277,0,0,0,24.4,33.633S37.075,51.156,59.358,51.156,94.319,33.633,94.319,33.633a7.271,7.271,0,0,0-5.708-11.644Z" transform="translate(-12285.999 -9456.537)" fill="#77e4eb"/><path d="M88.611,21.989a7.271,7.271,0,0,0-6.049,3.067s-8.553,11.559-23.2,11.559-23.2-11.559-23.2-11.559A7.277,7.277,0,0,0,24.4,33.633S37.075,51.156,59.358,51.156,94.319,33.633,94.319,33.633a7.271,7.271,0,0,0-5.708-11.644Z" transform="translate(-12179.999 -9456.537)" fill="#77e4eb"/><path d="M88.611,21.989a7.271,7.271,0,0,0-6.049,3.067s-8.553,11.559-23.2,11.559-23.2-11.559-23.2-11.559A7.277,7.277,0,0,0,24.4,33.633S37.075,51.156,59.358,51.156,94.319,33.633,94.319,33.633a7.271,7.271,0,0,0-5.708-11.644Z" transform="translate(-12073.999 -9456.537)" fill="#77e4eb"/><path d="M88.611,21.989a7.271,7.271,0,0,0-6.049,3.067s-8.553,11.559-23.2,11.559-23.2-11.559-23.2-11.559A7.277,7.277,0,0,0,24.4,33.633S37.075,51.156,59.358,51.156,94.319,33.633,94.319,33.633a7.271,7.271,0,0,0-5.708-11.644Z" transform="translate(-11967.999 -9456.537)" fill="#77e4eb"/><path d="M88.611,21.989a7.271,7.271,0,0,0-6.049,3.067s-8.553,11.559-23.2,11.559-23.2-11.559-23.2-11.559A7.277,7.277,0,0,0,24.4,33.633S37.075,51.156,59.358,51.156,94.319,33.633,94.319,33.633a7.271,7.271,0,0,0-5.708-11.644Z" transform="translate(-11861.999 -9456.537)" fill="#77e4eb"/><path d="M88.611,21.989a7.271,7.271,0,0,0-6.049,3.067s-8.553,11.559-23.2,11.559-23.2-11.559-23.2-11.559A7.277,7.277,0,0,0,24.4,33.633S37.075,51.156,59.358,51.156,94.319,33.633,94.319,33.633a7.271,7.271,0,0,0-5.708-11.644Z" transform="translate(-11755.999 -9456.537)" fill="#77e4eb"/><path d="M88.611,21.989a7.271,7.271,0,0,0-6.049,3.067s-8.553,11.559-23.2,11.559-23.2-11.559-23.2-11.559A7.277,7.277,0,0,0,24.4,33.633S37.075,51.156,59.358,51.156,94.319,33.633,94.319,33.633a7.271,7.271,0,0,0-5.708-11.644Z" transform="translate(-11649.999 -9456.537)" fill="#77e4eb"/><path d="M88.611,21.989a7.271,7.271,0,0,0-6.049,3.067s-8.553,11.559-23.2,11.559-23.2-11.559-23.2-11.559A7.277,7.277,0,0,0,24.4,33.633S37.075,51.156,59.358,51.156,94.319,33.633,94.319,33.633a7.271,7.271,0,0,0-5.708-11.644Z" transform="translate(-11543.999 -9456.537)" fill="#77e4eb"/></g></svg>