<svg enable-background="new 0 0 107.8 34" viewBox="0 0 107.8 34" xmlns="http://www.w3.org/2000/svg"><g fill="none"><path d="m0 21c0 6.9 5.4 12.6 12.3 13-6.9-.4-12.3-6.1-12.3-13z"/><path d="m11.7.1c-6.6.6-11.7 6.2-11.7 12.9 0-6.7 5.1-12.3 11.7-12.9z"/><path d="m21.7 34c6.9-.4 12.3-6.1 12.3-13 0 6.9-5.4 12.6-12.3 13z"/><path d="m22.3.1c6.6.6 11.7 6.2 11.7 12.9 0-6.7-5.1-12.3-11.7-12.9z"/><path d="m21 3.4h-8c-5.3 0-9.6 4.3-9.6 9.6v8c0 5.3 4.3 9.6 9.6 9.6h8c5.3 0 9.6-4.3 9.6-9.6v-8c0-5.3-4.3-9.6-9.6-9.6zm3.9 17.7c-1.9 2.4-4.8 3.9-7.9 3.9-3.1-.1-5.9-1.5-7.8-3.9-.5-.8-.4-1.8.4-2.4s1.9-.5 2.5.3c1.2 1.5 3 2.4 5 2.5 1.9-.1 3.8-1 5-2.5.3-.5.9-.7 1.5-.7.4 0 .7.1 1 .4.4.3.6.7.7 1.2 0 .4-.2.8-.4 1.2z"/></g><path d="m21 0c.4 0 .9 0 1.3.1-.4-.1-.9-.1-1.3-.1h-8c-.4 0-.9 0-1.3.1.4-.1.9-.1 1.3-.1z" fill="#15be7d"/><path d="m13 34c-.3 0-.5 0-.7 0h.7 8 .7c-.2 0-.5 0-.7 0z" fill="#15be7d"/><path d="m22.3.1c-.4-.1-.9-.1-1.3-.1h-8c-.4 0-.9 0-1.3.1-6.6.6-11.7 6.2-11.7 12.9v8c0 6.9 5.4 12.6 12.3 13h.7 8 .7c6.9-.4 12.3-6.1 12.3-13v-8c0-6.7-5.1-12.3-11.7-12.9zm8.3 20.9c0 5.3-4.3 9.6-9.6 9.6h-8c-5.3 0-9.6-4.3-9.6-9.6v-8c0-5.3 4.3-9.6 9.6-9.6h8c5.3 0 9.6 4.3 9.6 9.6z" fill="#15be7d"/><path d="m24.5 18.7c-.3-.2-.7-.4-1-.4-.6 0-1.1.3-1.5.7-1.2 1.5-3.1 2.4-5 2.5-2-.1-3.8-1-5-2.5-.6-.8-1.7-.9-2.5-.3-.7.6-.9 1.6-.4 2.4 1.9 2.4 4.8 3.8 7.8 3.9 3.1-.1 5.9-1.5 7.8-3.9.3-.4.4-.8.3-1.3.1-.4-.1-.9-.5-1.1z" fill="#15be7d"/><path d="m46.8 25c-1.7.1-3.4-.3-4.9-1.2-.6-.3-.9-.9-.9-1.5 0-.3.1-.6.3-.9.2-.2.5-.4.8-.3.5 0 .9.2 1.3.4.5.3 1.1.5 1.6.6.6.2 1.2.2 1.9.2.6 0 1.3-.1 1.8-.4.4-.2.7-.6.7-1.1 0-.3-.1-.5-.3-.8-.3-.2-.6-.4-.9-.5-.7-.2-1.4-.4-2.1-.5-1.3-.2-2.5-.7-3.5-1.4-.7-.6-1.1-1.6-1.1-2.5 0-.8.2-1.6.7-2.2.5-.7 1.2-1.2 2-1.5.9-.4 1.9-.6 2.9-.5.8 0 1.5.1 2.2.3s1.3.5 1.9.8c.5.3.9.9.9 1.5 0 .3-.1.7-.3.9s-.5.4-.8.4c-.2 0-.4 0-.6-.1-.3-.1-.5-.2-.7-.4-.4-.2-.9-.4-1.4-.6s-1-.2-1.4-.2c-.6 0-1.1.1-1.6.4-.4.2-.6.7-.6 1.1s.2.9.6 1.1c.7.4 1.5.6 2.4.7 1 .2 2 .5 2.9.9.6.3 1.1.7 1.5 1.2.3.6.5 1.2.5 1.9 0 1.2-.6 2.4-1.6 3-1.3.8-2.7 1.2-4.2 1.2zm25.2-14.2c1.3-.1 2.5.4 3.4 1.3.9 1.2 1.3 2.7 1.2 4.3v6.8c0 .5-.1.9-.5 1.2s-.8.5-1.3.4c-.5 0-.9-.1-1.2-.4s-.5-.8-.5-1.2v-6.8c.1-.8-.1-1.5-.5-2.2-.4-.5-1-.7-1.7-.7-.8 0-1.6.3-2.2.9-.6.7-.9 1.6-.8 2.5v6.2c0 .5-.1.9-.5 1.2-.3.3-.8.4-1.2.4-.5 0-.9-.1-1.2-.4s-.5-.8-.5-1.2v-6.8c.1-.8-.1-1.5-.5-2.2-.4-.5-1-.7-1.7-.7-.8 0-1.6.3-2.2.9-.6.7-.8 1.6-.8 2.5v6.2c0 .5-.2.9-.5 1.2s-.8.4-1.2.4c-.5 0-.9-.1-1.2-.4s-.5-.8-.5-1.2v-10.5c0-.5.2-.9.5-1.2.4-.3.8-.4 1.2-.4s.9.1 1.2.4.5.7.5 1.2v.7c.4-.7 1-1.3 1.7-1.7.8-.4 1.6-.6 2.5-.6 1.8-.2 3.5.9 4.1 2.6.4-.8 1-1.4 1.8-1.9s1.7-.8 2.6-.8zm10.4 14.1c-.5 0-.9-.1-1.2-.4s-.5-.8-.5-1.2v-10.8c0-.5.1-.9.5-1.2.3-.3.8-.4 1.2-.4.5 0 .9.1 1.2.4s.5.8.5 1.2v10.7c0 .5-.2.9-.5 1.2-.3.4-.7.5-1.2.5zm0-16.5c-.5 0-1.1-.2-1.5-.5s-.6-.8-.6-1.3.2-1 .6-1.3c.4-.4 1-.5 1.5-.5s1.1.2 1.5.5.6.8.6 1.3-.2 1-.6 1.3c-.4.4-.9.5-1.5.5zm7.6 16.5c-.5 0-.9-.1-1.2-.4s-.5-.8-.5-1.2v-16.6c0-.5.1-.9.5-1.2s.8-.5 1.2-.5c.5 0 .9.1 1.2.4s.5.8.5 1.2v16.6c0 .5-.2.9-.5 1.2-.3.4-.7.5-1.2.5zm16.7-3.9c.3 0 .6.1.8.4s.3.6.3 1c0 .6-.4 1.2-1 1.4-.7.4-1.4.7-2.1.8-.7.2-1.5.3-2.3.3-1.9.1-3.8-.6-5.2-1.9-1.3-1.4-2-3.3-1.9-5.2 0-1.3.3-2.5.8-3.7.5-1 1.3-1.9 2.3-2.5s2.2-.9 3.4-.9c1.1 0 2.2.3 3.2.8.9.5 1.6 1.3 2.1 2.3.5 1.1.8 2.3.8 3.5 0 .8-.4 1.2-1.1 1.2h-8.2c0 1 .4 2 1.1 2.8.7.6 1.7 1 2.7.9.5 0 1.1-.1 1.6-.2.5-.2 1-.4 1.5-.6.3-.2.7-.3 1.2-.4zm-4.8-7.7c-.8 0-1.7.3-2.3.9-.6.7-1 1.6-1 2.6h6.3c0-.9-.3-1.8-.8-2.6-.6-.7-1.4-1-2.2-.9z" fill="#0a2046" opacity=".999"/></svg>