<svg xmlns="http://www.w3.org/2000/svg" width="31.429" height="34.286" viewBox="0 0 31.429 34.286"><path d="M25.089,4a17.309,17.309,0,0,0-4.464.8A10.289,10.289,0,0,0,16.83,4,12.238,12.238,0,0,0,8.214,7.126,10.943,10.943,0,0,0,5,15.206a11.8,11.8,0,0,0,1.876,5.983,22.385,22.385,0,0,1,2.41,5.044c.626,2.3,1.06,5.061,1.786,7.366a9.86,9.86,0,0,0,1.473,3.08,3.869,3.869,0,0,0,2.991,1.607,3.637,3.637,0,0,0,2.991-1.563,5.85,5.85,0,0,0,.759-3.259,35.431,35.431,0,0,1,.313-5.58,6.3,6.3,0,0,1,.67-2.054c.246-.4.256-.4.446-.4s.2,0,.447.4a6.37,6.37,0,0,1,.67,2.054,34.912,34.912,0,0,1,.311,5.58,5.85,5.85,0,0,0,.759,3.259,3.637,3.637,0,0,0,2.991,1.563,3.837,3.837,0,0,0,2.991-1.607,10.212,10.212,0,0,0,1.473-3.126c.726-2.31,1.166-5.056,1.786-7.321a22.329,22.329,0,0,1,2.411-5.044,11.792,11.792,0,0,0,1.874-5.981C36.5,8.721,31.561,4,25.089,4ZM10.223,9.179A9.244,9.244,0,0,1,16.83,6.857c3.309,0,7.1,3.483,7.1,3.483l2.009-2.054s-.943-.743-1.607-1.294c.3-.044.563-.134.759-.134,5.173,0,8.539,3.2,8.483,8.3v.044c0,.079-.017.146-.019.223H25V12.571H16.429v2.857H7.876c0-.077-.019-.144-.019-.223A8.012,8.012,0,0,1,10.223,9.179Zm11.92,6.25v2.857H19.286V15.429ZM32.1,19.8a23.875,23.875,0,0,0-2.723,5.67c-.681,2.483-1.116,5.234-1.741,7.233a7.811,7.811,0,0,1-1.027,2.233c-.33.43-.434.489-.713.489-.436,0-.436-.044-.58-.269a3.576,3.576,0,0,1-.313-1.7,35.85,35.85,0,0,0-.357-6.071,8.717,8.717,0,0,0-1.027-3.08,3.539,3.539,0,0,0-2.9-1.741,3.534,3.534,0,0,0-2.9,1.741,8.651,8.651,0,0,0-1.027,3.08,35.85,35.85,0,0,0-.357,6.071,3.565,3.565,0,0,1-.313,1.7c-.146.224-.146.267-.58.267-.284,0-.39-.067-.714-.491a7.578,7.578,0,0,1-1.027-2.187c-.626-1.987-1.06-4.766-1.741-7.277A23.9,23.9,0,0,0,9.33,19.8c-.3-.526-.544-1.023-.764-1.517h7.863v2.857H25V18.286h7.861C32.641,18.78,32.394,19.277,32.1,19.8Z" transform="translate(-5 -4)" fill="#27b1d9"/></svg>