<svg xmlns="http://www.w3.org/2000/svg" width="19.45" height="19.45" viewBox="0 0 19.45 19.45"><path d="M18.566,15.591a1.086,1.086,0,0,0-1.107.006l-1.73,1.031a1.083,1.083,0,0,1-1.226-.074,28.152,28.152,0,0,1-2.463-2.146,28.152,28.152,0,0,1-2.146-2.463,1.083,1.083,0,0,1-.074-1.226l1.031-1.73a1.09,1.09,0,0,0,0-1.11L8.317,3.542a1.094,1.094,0,0,0-1.208-.51,3.587,3.587,0,0,0-1.68,1.01C3.472,6,2.433,9.3,9.792,16.658s10.659,6.32,12.616,4.363a3.6,3.6,0,0,0,1.011-1.684,1.089,1.089,0,0,0-.507-1.2Z" transform="translate(-4 -3)" fill="#27b1d9"/></svg>