<svg xmlns="http://www.w3.org/2000/svg" width="16.185" height="16.185" viewBox="0 0 16.185 16.185"><g transform="translate(-1 -1)"><path d="M5.546,16.185A3.546,3.546,0,0,1,2,12.639V5.546A3.546,3.546,0,0,1,5.546,2h7.092a3.546,3.546,0,0,1,3.546,3.546v7.092a3.546,3.546,0,0,1-3.546,3.546Z" fill="none" stroke="#fff" stroke-linecap="round" stroke-linejoin="round" stroke-width="2"/><path d="M13.686,10.378h0a2.837,2.837,0,1,1-2.39-2.39h0A2.837,2.837,0,0,1,13.686,10.378Z" transform="translate(-1.757 -1.732)" fill="none" stroke="#fff" stroke-linecap="round" stroke-linejoin="round" stroke-width="2"/><path d="M17.5,6.5h0" transform="translate(-4.507 -1.308)" fill="none" stroke="#fff" stroke-linecap="round" stroke-linejoin="round" stroke-width="2"/></g></svg>