<svg xmlns="http://www.w3.org/2000/svg" width="16.882" height="13.505" viewBox="0 0 16.882 13.505"><path d="M16.882,1.612h0a7,7,0,0,1-1.989.538h0A3.435,3.435,0,0,0,16.416.264h0a7.047,7.047,0,0,1-2.2.827h0A3.478,3.478,0,0,0,11.687.015a3.438,3.438,0,0,0-3.463,3.41,3.365,3.365,0,0,0,.089.777h0A9.883,9.883,0,0,1,1.176.639h0A3.346,3.346,0,0,0,.708,2.352a3.393,3.393,0,0,0,1.54,2.839h0A3.5,3.5,0,0,1,.679,4.763v.042A3.428,3.428,0,0,0,3.457,8.15h0a3.559,3.559,0,0,1-.912.119,3.328,3.328,0,0,1-.652-.063h0a3.459,3.459,0,0,0,3.235,2.369h0a7.016,7.016,0,0,1-4.3,1.458A7.4,7.4,0,0,1,0,11.986H0A9.9,9.9,0,0,0,5.308,13.52a9.707,9.707,0,0,0,9.853-9.7l-.012-.441h0a6.859,6.859,0,0,0,1.732-1.763Z" transform="translate(0 -0.015)" fill="#fff"/></svg>