<svg xmlns="http://www.w3.org/2000/svg" width="34.609" height="32.719" viewBox="0 0 34.609 32.719"><path d="M38.609,4.281,36.4,5.5s-.574.3-1.35.63a7.581,7.581,0,0,1-2.25.63H18.4A10.747,10.747,0,0,0,8.32,12.607a14.015,14.015,0,0,0-1.44,5.671v2.655l2.205-1.44a16.61,16.61,0,0,1,2.115-.9v9.766h2.88V18.278h1.44V28.359H18.4V18.278h1.44V28.359h2.88V18.278h1.44V28.359h2.88V18.278h.45a10.268,10.268,0,0,0,9.676-5.851,14.732,14.732,0,0,0,1.4-5.671Zm-3.33,4.771a9.622,9.622,0,0,1-.675,2.115c-1.058,2.188-2.847,4.23-7.111,4.23H12.641a7.2,7.2,0,0,0-2.43.585,9.331,9.331,0,0,1,.675-2.115c1.1-2.183,2.987-4.23,7.516-4.23H32.8A6.981,6.981,0,0,0,35.279,9.052Zm-6.8,9.226V28.359h2.88V18.278Zm4.32,0V28.359h2.88V18.278ZM4,29.8v2.88H35.684v1.44H4V37H38.564V29.8Z" transform="translate(-4 -4.281)" fill="#27b1d9"/></svg>