<svg xmlns="http://www.w3.org/2000/svg" width="31.424" height="34.286" viewBox="0 0 31.424 34.286"><path d="M16.842,4a13.206,13.206,0,0,0-6.535,1.588l-1.565.882L9.955,7.8a2.8,2.8,0,0,1,.759,1.917,2.8,2.8,0,0,1-3.744,2.7l-1.655-.544L5.106,13.6A13.25,13.25,0,0,0,5,15.191,11.923,11.923,0,0,0,6.858,21.2a22.409,22.409,0,0,1,2.425,5.042c.622,2.3,1.07,5.048,1.794,7.349a9.883,9.883,0,0,0,1.456,3.089,3.89,3.89,0,0,0,3.008,1.6,3.593,3.593,0,0,0,2.969-1.562,5.828,5.828,0,0,0,.776-3.245,35.3,35.3,0,0,1,.313-5.592,6.589,6.589,0,0,1,.656-2.073c.244-.4.263-.385.455-.385s.213-.011.458.388a6.593,6.593,0,0,1,.658,2.073,35.011,35.011,0,0,1,.318,5.589,5.821,5.821,0,0,0,.776,3.242,3.6,3.6,0,0,0,2.969,1.565A3.879,3.879,0,0,0,28.9,36.67a9.985,9.985,0,0,0,1.454-3.1c.724-2.309,1.176-5.057,1.8-7.324A22.4,22.4,0,0,1,34.568,21.2a11.936,11.936,0,0,0,1.855-6C36.492,8.723,31.565,4,25.1,4a17.591,17.591,0,0,0-4.467.784A10.305,10.305,0,0,0,16.842,4Zm0,2.857c3.308,0,7.1,3.465,7.1,3.465l2.012-2.028s-.948-.752-1.6-1.3c.3-.041.555-.137.748-.137,5.172,0,8.532,3.214,8.474,8.318l0,.008v.008a8.97,8.97,0,0,1-1.49,4.612,24.119,24.119,0,0,0-2.687,5.681v0c-.68,2.482-1.142,5.228-1.769,7.227a7.985,7.985,0,0,1-1,2.232c-.327.432-.452.483-.731.483-.433,0-.422-.026-.566-.251a3.555,3.555,0,0,1-.321-1.7,36.039,36.039,0,0,0-.363-6.085A8.636,8.636,0,0,0,23.6,24.321a3.529,3.529,0,0,0-2.893-1.749,3.524,3.524,0,0,0-2.891,1.752A8.632,8.632,0,0,0,16.783,27.4a36.234,36.234,0,0,0-.354,6.083,3.541,3.541,0,0,1-.321,1.7c-.145.225-.132.254-.566.254-.284,0-.411-.051-.737-.477a7.852,7.852,0,0,1-1-2.213c-.626-1.989-1.088-4.736-1.766-7.246v-.006l0,0A24.119,24.119,0,0,0,9.35,19.8,9.239,9.239,0,0,1,7.9,15.42a5.731,5.731,0,0,0,5.675-5.706,5.585,5.585,0,0,0-.46-2.185A10.8,10.8,0,0,1,16.842,6.857Z" transform="translate(-5 -4)" fill="#27b1d9"/></svg>