<svg xmlns="http://www.w3.org/2000/svg" width="39.998" height="40" viewBox="0 0 39.998 40"><path d="M21.143,4A17.143,17.143,0,1,0,26.98,37.251c.187,1.05.272,2.25.444,3.359a5.711,5.711,0,0,0,.619,2.051A2.759,2.759,0,0,0,30.264,44a2.341,2.341,0,0,0,1.373-.4,2.22,2.22,0,0,0,.8-1.166,5.693,5.693,0,0,0,.134-1.855,13.435,13.435,0,0,1,.675-3.463,5.7,5.7,0,0,1,.717-1.454,1.072,1.072,0,0,1,.153-.17,1.274,1.274,0,0,1,.106.134,5.461,5.461,0,0,1,.639,1.437,14.735,14.735,0,0,1,.566,3.516,5.3,5.3,0,0,0,.179,1.906,2.246,2.246,0,0,0,.823,1.13A2.4,2.4,0,0,0,37.792,44a2.8,2.8,0,0,0,2.229-1.3,5.9,5.9,0,0,0,.7-2.048c.275-1.413.4-2.992.725-4.2a12.958,12.958,0,0,1,1.376-2.843A7.677,7.677,0,0,0,44,29.773a7.031,7.031,0,0,0-5.784-7.056c.047-.518.073-1.044.073-1.574A17.165,17.165,0,0,0,21.143,4Zm0,2.857A14.264,14.264,0,0,1,35.429,21.143a14.485,14.485,0,0,1-.095,1.588,9.842,9.842,0,0,0-1.046.321,8.183,8.183,0,0,0-2.447-.48,7.811,7.811,0,0,0-5.488,1.995,7.094,7.094,0,0,0-2.093,5.2,7.666,7.666,0,0,0,1.175,3.842c.194.344.365.655.541.971A14.283,14.283,0,1,1,21.143,6.857ZM19.714,9.714v10H12.571v2.857h10V9.714ZM31.84,25.429a5.832,5.832,0,0,1,1.886.34l.561.259.572-.229a4.747,4.747,0,0,1,1.861-.371c2.791,0,4.453,1.591,4.422,4.325v.014a4.7,4.7,0,0,1-.806,2.439A14.633,14.633,0,0,0,38.7,35.694l0,0v0a27.952,27.952,0,0,0-.622,3.527,13.964,13.964,0,0,0-.477-3.005,7.616,7.616,0,0,0-1.055-2.274,3.06,3.06,0,0,0-2.411-1.376A3.129,3.129,0,0,0,31.7,33.911a7.913,7.913,0,0,0-1.152,2.254,13.03,13.03,0,0,0-.508,2.673,18.756,18.756,0,0,0-.477-3.136v-.008a14.628,14.628,0,0,0-1.643-3.488,4.7,4.7,0,0,1-.806-2.439,4.122,4.122,0,0,1,1.208-3.133A4.9,4.9,0,0,1,31.84,25.429Z" transform="translate(-4 -4)" fill="#27b1d9"/></svg>