<svg width="190" height="214" viewBox="0 0 190 214" fill="none" xmlns="http://www.w3.org/2000/svg">
<path d="M163.514 114.773C156.257 108.779 147.154 105.603 137.668 106.444C129.15 107.195 121.377 110.244 113.483 113.248C109.79 114.654 106.064 116.016 102.225 117.012C101.255 117.264 100.274 117.496 99.2911 117.691C98.9455 117.762 97.4604 118.003 97.486 118.014C95.6475 118.235 93.7781 118.312 91.9311 118.216C91.5001 118.196 91.0752 118.152 90.6463 118.123C90.5785 118.118 90.5135 118.117 90.4581 118.11C90.4249 118.097 90.3869 118.087 90.3384 118.07C89.5443 117.822 88.6477 117.743 87.8357 117.531C86.9047 117.291 85.984 117.014 85.0832 116.693C84.8817 116.623 84.6795 116.541 84.4801 116.463C84.4918 116.45 83.4537 116.003 83.3276 115.941C81.7872 115.193 80.3046 114.321 78.8915 113.358C78.9227 113.379 78.278 112.91 77.9863 112.706C77.8081 112.565 77.614 112.407 77.5537 112.359C76.7314 111.671 75.9394 110.947 75.1806 110.191C74.4987 109.512 73.8451 108.804 73.2178 108.075C72.9922 107.807 72.7715 107.536 72.548 107.261C72.4987 107.186 72.4438 107.103 72.3702 106.997C71.2942 105.391 70.3648 103.77 69.4608 102.07C69.4044 101.961 69.3572 101.879 69.3203 101.804C69.1483 101.383 68.9887 100.962 68.8388 100.535C68.5215 99.6391 68.2436 98.7337 68.0148 97.8127C67.8231 97.0565 67.6709 96.2904 67.5359 95.5208C67.5315 95.4462 67.5243 95.3669 67.5213 95.2723C67.4766 94.6368 67.4271 94.004 67.4073 93.3669C67.191 86.1267 69.0166 78.9405 68.1957 71.7027C67.6182 66.6167 66.0091 61.9208 62.5251 58.0184C58.2708 53.2509 52.124 51.3225 45.9152 50.7719C40.1514 50.2663 34.2705 51.1766 28.5421 51.7036C22.2917 52.2751 16.0412 52.8466 9.7907 53.4181C5.91622 53.7737 2.61424 56.4827 2.64798 60.5599C2.68031 64.1435 6.03065 67.9818 9.92519 67.6275C20.2714 66.6818 30.707 65.2544 41.097 64.887C42.2015 64.8465 43.3054 64.8385 44.4122 64.8801C44.8681 64.8994 45.3316 64.9208 45.7889 64.9649C45.9578 64.9895 46.4808 65.0471 46.5313 65.0564C47.4435 65.2297 48.3751 65.4367 49.2551 65.7441C49.3659 65.8021 49.8659 66.0207 49.9387 66.0686C49.9491 66.0754 51.2374 66.9561 51.1687 66.8482C51.5557 67.2283 52.3066 68.1047 52.1855 67.8728C52.4933 68.35 52.7673 68.8468 53.0537 69.3429C53.1562 69.6432 53.2636 69.9408 53.3516 70.2496C53.4578 70.6121 53.5515 70.9753 53.6376 71.3366C53.6782 71.5186 53.8039 72.4284 53.8254 72.4545C54.3758 79.168 52.9359 85.8168 52.9688 92.5271C53.0067 100.474 55.6909 108.427 60.4665 114.846C65.5547 121.694 72.1714 126.825 80.1803 129.958C87.9641 133.002 96.3818 132.958 104.435 131.121C111.957 129.404 118.983 126.157 126.233 123.622C129.653 122.424 133.119 121.438 136.694 120.799C136.369 120.871 138.173 120.625 138.452 120.606C139.313 120.545 140.178 120.515 141.041 120.524C141.9 120.528 142.752 120.596 143.612 120.657C143.64 120.661 143.667 120.664 143.69 120.67C144.385 120.802 145.072 120.932 145.762 121.099C146.228 121.215 146.691 121.346 147.149 121.492C147.243 121.521 147.888 121.746 148.245 121.861C148.504 121.975 148.95 122.167 149.037 122.206C149.575 122.467 150.108 122.744 150.63 123.033C151.627 123.6 152.616 124.218 153.533 124.914C153.615 124.989 153.718 125.09 153.853 125.211C154.377 125.705 154.929 126.17 155.436 126.68C157.24 128.476 157.448 128.703 158.777 130.87C159.403 131.889 159.978 132.951 160.471 134.04C160.339 133.744 160.125 133.026 160.579 134.35C160.775 134.911 160.977 135.475 161.146 136.045C163.712 144.587 161.495 153.072 155.881 160.628C153.655 163.627 155.26 168.685 158.469 170.358C162.222 172.314 165.943 171.057 168.332 167.849C180.117 151.958 179.45 127.93 163.514 114.773Z" fill="#FFCE22"/>
</svg>
