<svg width="158" height="100" viewBox="0 0 158 100" fill="none" xmlns="http://www.w3.org/2000/svg">
<path d="M114.848 1.90242C107.106 4.75484 100.697 10.2175 97.1724 17.7094C94.0042 24.436 92.9108 31.5986 91.7294 38.8338C91.1778 42.2189 90.5774 45.6089 89.6499 48.9262C89.4156 49.764 89.1618 50.6018 88.8786 51.4251C88.781 51.7157 88.3124 52.936 88.3319 52.9215C87.6924 54.3986 86.9309 55.8369 86.0474 57.1832C85.8423 57.498 85.6227 57.7982 85.4128 58.1082C85.3786 58.1566 85.3493 58.205 85.32 58.2438C85.2956 58.2631 85.2712 58.2874 85.237 58.3164C84.7001 58.8055 84.2461 59.4448 83.7286 59.963C83.138 60.5586 82.5229 61.1301 81.8834 61.6676C81.7419 61.7887 81.5905 61.9049 81.4441 62.0212C81.4392 62.0066 80.6435 62.5926 80.541 62.6604C79.2962 63.4934 77.9831 64.2295 76.6309 64.8736C76.6602 64.8591 76.0207 65.14 75.7376 65.2707C75.5521 65.3434 75.3471 65.4208 75.2836 65.445C74.4001 65.7647 73.5019 66.0456 72.5939 66.2877C71.7787 66.5056 70.9537 66.6897 70.1238 66.8446C69.8212 66.8979 69.5185 66.9463 69.211 66.9948C69.1329 66.9996 69.045 67.0045 68.9328 67.0141C67.2389 67.1255 65.5987 67.1207 63.9097 67.0626C63.8023 67.0577 63.7193 67.0577 63.6461 67.0529C63.2507 66.9996 62.8602 66.9366 62.4696 66.864C61.6495 66.7139 60.8392 66.5298 60.0386 66.3022C59.3796 66.1182 58.7304 65.9003 58.086 65.6678C58.0275 65.6388 57.964 65.6097 57.8908 65.571C57.388 65.3288 56.8852 65.0915 56.3921 64.83C50.793 61.8517 46.1312 57.3624 40.2685 54.8393C36.1485 53.0668 31.8723 52.2387 27.3764 53.1637C21.8847 54.292 17.7208 58.0743 14.5771 62.5006C11.6628 66.6122 9.77364 71.4259 7.65994 75.9588C5.35098 80.9033 3.04202 85.8479 0.733065 90.7924C-0.697219 93.8579 -0.0870237 97.5142 3.02738 99.2576C5.76592 100.788 10.1544 99.9356 11.5944 96.8556C15.4167 88.6712 18.9118 80.2108 23.1929 72.2444C23.6469 71.3969 24.1253 70.5639 24.6428 69.7503C24.8575 69.4162 25.0772 69.0772 25.3115 68.7479C25.4043 68.6316 25.6776 68.2636 25.7069 68.2297C26.239 67.6195 26.8053 67.0093 27.4252 66.4814C27.518 66.4233 27.9036 66.1424 27.972 66.1085C27.9817 66.1037 29.2167 65.5177 29.1045 65.5225C29.5633 65.3966 30.5591 65.2126 30.3297 65.2029C30.8276 65.1787 31.3255 65.1884 31.8283 65.1884C32.1017 65.2417 32.3751 65.2901 32.6484 65.3579C32.9706 65.4354 33.2879 65.5225 33.6003 65.6146C33.7565 65.663 34.5034 65.9632 34.5327 65.9584C39.878 68.4573 44.3006 72.4235 49.4165 75.3099C55.4744 78.7289 62.6991 80.1624 69.6748 79.3585C77.1142 78.5061 83.919 75.7602 89.8159 71.1015C95.5468 66.5734 99.2079 60.2293 101.346 53.3816C103.343 46.9842 103.958 40.2963 105.212 33.7488C105.803 30.6591 106.574 27.6275 107.658 24.6637C107.57 24.9397 108.175 23.4772 108.283 23.2592C108.615 22.5861 108.971 21.9226 109.357 21.2785C109.737 20.6344 110.162 20.0242 110.587 19.4043C110.601 19.385 110.616 19.3656 110.631 19.3511C111.036 18.8862 111.436 18.4261 111.866 17.9806C112.159 17.6803 112.461 17.3897 112.774 17.1089C112.837 17.0507 113.291 16.6633 113.535 16.4454C113.735 16.3001 114.077 16.0483 114.145 15.9999C114.58 15.7093 115.024 15.4284 115.473 15.1621C116.342 14.6584 117.245 14.1838 118.178 13.7964C118.27 13.7673 118.392 13.7334 118.544 13.685C119.149 13.5058 119.744 13.2927 120.355 13.1329C122.512 12.5566 122.776 12.4985 125.007 12.4404C126.056 12.4113 127.116 12.4404 128.16 12.5421C127.877 12.513 127.238 12.3629 128.443 12.5953C128.956 12.6922 129.473 12.7891 129.981 12.9053C137.601 14.6826 143.078 20.0291 146.358 27.5258C147.662 30.4993 152.211 31.4824 154.891 29.8019C158.025 27.8309 158.704 24.4893 157.313 21.3028C150.405 5.55874 131.846 -4.36419 114.848 1.90242Z" fill="#FFCE22"/>
</svg>
