<svg width="143" height="152" viewBox="0 0 143 152" fill="none" xmlns="http://www.w3.org/2000/svg">
<path d="M110.457 13.3082C95.5771 2.51817 76.3371 -2.27183 58.0371 1.02817C40.4671 4.19817 25.3971 15.7582 15.0071 29.9482C6.05709 42.1682 1.8471 55.9882 1.3971 69.9682C-4.4329 98.9182 8.17705 130.978 35.597 144.238C51.457 151.908 70.3171 153.728 87.3971 148.418C107.567 142.148 122.797 126.618 132.797 108.348C141.917 91.6782 145.427 72.6282 140.047 54.3582C135.107 37.5982 124.477 23.4782 110.457 13.3082ZM104.717 42.5882C105.237 43.1582 105.737 43.7382 106.237 44.3282C106.337 44.4482 106.657 44.8382 106.927 45.1682C107.197 45.5282 107.577 46.0382 107.677 46.1882C108.117 46.8182 108.547 47.4582 108.967 48.0982C109.907 49.5482 110.787 51.0282 111.607 52.5482C112.417 54.0682 113.147 55.6182 113.857 57.1782C113.877 57.2182 113.887 57.2482 113.907 57.2882C114.167 57.9982 114.417 58.7082 114.657 59.4282C115.587 62.2582 116.267 65.1582 116.747 68.1082C116.677 67.8782 116.967 70.5782 116.997 71.2282C117.057 72.7482 117.047 74.2682 116.967 75.7982C116.937 76.3182 116.447 79.8982 116.687 78.7582C116.277 80.9282 115.787 83.0682 115.147 85.1882C111.267 98.1082 101.227 112.828 89.5471 119.768C88.1571 120.598 86.7071 121.288 85.2871 122.048C85.0571 122.168 84.877 122.268 84.717 122.348C84.087 122.598 83.4371 122.838 82.7971 123.058C81.2771 123.588 79.7371 124.048 78.1771 124.438C77.3971 124.638 76.6171 124.818 75.8271 124.978C75.7371 124.998 73.6571 125.358 73.5371 125.418C70.6071 125.768 67.6271 125.848 64.6971 125.728C63.8971 125.698 63.0971 125.628 62.2871 125.588C62.1371 125.578 61.7271 125.528 61.4171 125.498C59.8071 125.258 58.2171 124.948 56.6371 124.578C54.8771 124.158 53.1871 123.588 51.4571 123.078C51.2171 123.008 51.0371 122.958 50.8671 122.908C50.5971 122.798 50.3271 122.678 50.0571 122.558C49.6571 121.998 49.2071 121.448 48.6871 120.938C46.2671 118.568 44.017 116.078 41.837 113.488C41.627 113.238 41.4571 113.038 41.3271 112.888C40.8971 112.318 40.4771 111.738 40.0771 111.158C38.8671 109.428 37.7071 107.648 36.6271 105.828C34.8871 102.918 33.4071 99.8882 31.9571 96.8182C31.8771 96.6582 31.5571 95.8982 31.4571 95.6882C31.2471 95.1382 31.0471 94.5781 30.8471 94.0181C30.2171 92.2381 29.6471 90.4282 29.1471 88.5982C27.3671 82.0882 26.787 78.6682 26.907 72.5682C27.387 70.7482 27.9671 68.9382 28.6371 67.1782C28.6971 67.0582 28.767 66.9282 28.837 66.7782C29.397 65.6782 29.937 64.5782 30.527 63.4882C32.437 59.9782 32.617 55.8882 31.277 52.3882C32.457 50.0082 33.7271 47.6882 35.1871 45.4682C35.4671 45.0382 37.487 42.3582 37.097 42.7782C38.217 41.4282 39.377 40.0982 40.597 38.8282C41.707 37.6782 42.8771 36.5782 44.0671 35.5182C44.6071 35.0382 47.017 33.2282 46.587 33.4882C49.167 31.7282 51.8071 30.1082 54.6271 28.7582C54.7771 28.6882 55.3571 28.4282 55.7871 28.2382C56.2171 28.0782 56.8271 27.8482 56.9771 27.7982C58.4571 27.2882 59.9571 26.8382 61.4771 26.4682C62.2371 26.2782 63.007 26.1182 63.777 25.9682C63.927 25.9382 64.567 25.8482 65.027 25.7782C65.497 25.7382 66.1971 25.6782 66.3671 25.6682C67.3571 25.6082 68.347 25.5682 69.337 25.5782C73.147 25.5882 74.9171 25.8282 78.8871 26.8082C80.7471 27.2682 82.5871 27.8082 84.3971 28.4282C84.8171 28.5782 85.2471 28.7281 85.6671 28.8781C85.6071 28.8881 87.5771 29.7582 87.7271 29.8282C90.5071 31.1582 93.177 32.7182 95.717 34.4382C96.247 34.7982 96.757 35.1682 97.277 35.5482C97.377 35.6282 97.4871 35.7282 97.6171 35.8382C98.9371 36.9682 100.247 38.0882 101.497 39.2982C102.617 40.3382 103.687 41.4482 104.717 42.5882Z" fill="#770FFB"/>
</svg>
