<svg width="125" height="294" viewBox="0 0 125 294" fill="none" xmlns="http://www.w3.org/2000/svg">
<path d="M115.133 268.194C82.3329 261.774 49.403 252.014 19.163 239.354C12.803 236.694 5.37292 237.754 1.61292 244.314C-1.55708 249.834 -0.0871305 259.114 6.31287 261.794C39.2329 275.574 73.313 286.224 108.433 293.094C115.213 294.424 122.303 290.804 124.183 283.814C125.913 277.364 121.953 269.524 115.133 268.194Z" fill="#770FFB"/>
<path d="M18.199 16.6169C17.4669 19.3489 16.7349 22.081 16.0028 24.813C15.0072 28.5286 15.581 32.8623 17.506 36.1965C19.346 39.3835 22.9526 42.3704 26.6128 43.1901C30.3997 44.0291 34.6222 43.8428 37.9963 41.6869C41.3531 39.541 43.9394 36.5006 44.9899 32.5801L47.186 24.3839C48.1816 20.6683 47.6079 16.3346 45.6829 13.0004C43.8429 9.81342 40.2362 6.82658 36.576 6.00688C32.7892 5.16789 28.5666 5.35412 25.1925 7.51001C21.8357 9.65589 19.2581 12.6914 18.199 16.6169Z" fill="#1BBAFF"/>
</svg>
