<svg width="221" height="183" viewBox="0 0 221 183" fill="none" xmlns="http://www.w3.org/2000/svg">
<path d="M182.664 150.274C181.932 153.006 181.2 155.738 180.468 158.47C179.472 162.186 180.046 166.519 181.971 169.854C183.811 173.041 187.417 176.027 191.078 176.847C194.865 177.686 199.087 177.5 202.461 175.344C205.818 173.198 208.404 170.158 209.455 166.237L211.651 158.041C212.646 154.325 212.073 149.992 210.148 146.657C208.308 143.471 204.701 140.484 201.041 139.664C197.254 138.825 193.031 139.011 189.657 141.167C186.301 143.313 183.723 146.348 182.664 150.274Z" fill="#FB0F5A"/>
<path d="M8.78223 30.712C11.0991 32.3343 13.4161 33.9566 15.733 35.5789C18.884 37.7853 23.1526 38.7284 26.9441 38.0598C30.5682 37.4208 34.6084 35.0533 36.6306 31.8941C38.7141 28.6226 39.9833 24.591 39.1115 20.683C38.2431 16.7947 36.2705 13.3246 32.9458 10.9965L25.995 6.12957C22.844 3.92322 18.5754 2.98011 14.7839 3.64866C11.1598 4.28768 7.11956 6.65525 5.09742 9.81438C3.01386 13.0859 1.74465 17.1175 2.6165 21.0255C3.48489 24.9138 5.45572 28.3741 8.78223 30.712Z" fill="#1BBAFF"/>
</svg>
