<svg width="65" height="136" viewBox="0 0 65 136" fill="none" xmlns="http://www.w3.org/2000/svg">
<path d="M26.199 16.6167C25.4669 19.3488 24.7349 22.0808 24.0028 24.8129C23.0072 28.5285 23.581 32.8622 25.506 36.1964C27.346 39.3834 30.9526 42.3703 34.6128 43.19C38.3997 44.0289 42.6222 43.8427 45.9963 41.6868C49.3531 39.5409 51.9394 36.5005 52.9899 32.58L55.186 24.3838C56.1816 20.6682 55.6079 16.3345 53.6829 13.0003C51.8429 9.81329 48.2362 6.82646 44.576 6.00676C40.7892 5.16777 36.5666 5.354 33.1925 7.50989C29.8357 9.65577 27.2581 12.6913 26.199 16.6167Z" fill="#FB0F5A"/>
<path d="M3.77297 113.74C-1.01702 118.53 -1.44703 127.26 3.64297 131.9C8.75297 136.56 16.673 136.9 21.803 131.77C26.593 126.98 27.023 118.25 21.933 113.61C16.833 108.94 8.90298 108.61 3.77297 113.74Z" fill="#1BBAFF"/>
</svg>
