<svg width="130" height="28" viewBox="0 0 130 28" fill="none" xmlns="http://www.w3.org/2000/svg">
<path d="M38.9165 25.7899C39.6365 25.7899 40.1405 25.622 40.4285 25.2859C40.7165 24.9499 40.8845 24.482 40.9325 23.882C41.0045 23.2819 41.0405 22.5859 41.0405 21.7939V4.29795C41.0645 3.86595 41.1005 3.40995 41.1485 2.92995C40.7405 2.95395 40.3085 2.97795 39.8525 3.00195C39.3965 3.00195 38.9885 3.01395 38.6285 3.03795V1.12995C39.7085 1.12995 40.5605 1.08195 41.1845 0.98595C41.8325 0.865949 42.3245 0.733948 42.6605 0.589949C43.0205 0.445949 43.2845 0.289949 43.4525 0.121948H44.8205V22.8379C44.8205 23.2699 44.8085 23.714 44.7845 24.17C44.7605 24.6019 44.7245 25.046 44.6765 25.502C45.0605 25.478 45.4445 25.466 45.8285 25.466C46.2365 25.4419 46.6085 25.4179 46.9445 25.3939V27.302H38.9165V25.7899Z" fill="#242424"/>
<path d="M13.9081 6.56594C14.4121 7.54994 14.7241 8.65394 14.8441 9.87794H16.5001V1.81394H14.3401L14.4841 3.32594C13.5481 2.65394 12.5041 2.18594 11.3521 1.92194C10.2241 1.65794 9.20414 1.52594 8.29214 1.52594C6.78014 1.52594 5.52013 1.74194 4.51213 2.17394C3.52813 2.58194 2.74814 3.12194 2.17213 3.79394C1.59613 4.46594 1.18813 5.17394 0.948135 5.91794C0.708135 6.66194 0.588135 7.36994 0.588135 8.04194C0.588135 9.19394 0.804135 10.2019 1.23614 11.0659C1.66813 11.9059 2.25614 12.6379 3.00014 13.2619C3.74414 13.8859 4.57214 14.4379 5.48414 14.9179C6.42014 15.3979 7.38014 15.8539 8.36413 16.2859C9.34813 16.7179 10.2841 17.1739 11.1721 17.6539C12.0841 18.1339 12.8281 18.7099 13.4041 19.3819C14.0041 20.0539 14.3041 20.8819 14.3041 21.8659C14.3041 22.7059 14.0881 23.4379 13.6561 24.0619C13.2241 24.6859 12.6361 25.1659 11.8921 25.5019C11.1481 25.8379 10.3201 26.0059 9.40814 26.0059C7.58414 26.0059 6.01213 25.4779 4.69213 24.4219C3.39613 23.3419 2.65213 21.7579 2.46013 19.6699H0.732135L0.876135 27.5899H3.07213L2.89213 26.0779C3.82813 26.6539 4.86014 27.0979 5.98814 27.4099C7.14014 27.7219 8.23213 27.8779 9.26414 27.8779C11.0881 27.8779 12.6361 27.5779 13.9081 26.9779C15.2041 26.3779 16.2001 25.5499 16.8961 24.4939C17.5921 23.4379 17.9401 22.2379 17.9401 20.8939C17.9401 19.7419 17.7121 18.7459 17.2561 17.9059C16.8001 17.0419 16.1881 16.3099 15.4201 15.7099C14.6521 15.0859 13.8001 14.5339 12.8641 14.0539C11.9281 13.5739 11.0041 13.1419 10.0921 12.7579C8.96414 12.2539 7.94414 11.7499 7.03214 11.2459C6.14413 10.7419 5.43614 10.1779 4.90814 9.55394C4.38014 8.90594 4.11613 8.11394 4.11613 7.17794C4.11613 6.12194 4.51213 5.22194 5.30413 4.47794C6.09613 3.73394 7.16413 3.36194 8.50813 3.36194C9.82813 3.33794 10.9321 3.62594 11.8201 4.22594C12.7081 4.80194 13.4041 5.58194 13.9081 6.56594Z" fill="#242424"/>
<path fill-rule="evenodd" clip-rule="evenodd" d="M24.2535 26.7259C25.6215 27.4939 27.1575 27.8779 28.8615 27.8779C30.5895 27.8779 32.1255 27.4459 33.4695 26.5819C34.8375 25.7179 35.9175 24.5299 36.7095 23.0179C37.5015 21.5059 37.8975 19.8019 37.8975 17.9059C37.8975 16.1059 37.4895 14.5219 36.6735 13.1539C35.8815 11.7619 34.8015 10.6819 33.4335 9.91394C32.0655 9.12194 30.5295 8.72594 28.8255 8.72594C27.1455 8.72594 25.6215 9.15794 24.2535 10.0219C22.8855 10.8859 21.7935 12.0739 20.9775 13.5859C20.1855 15.0739 19.7895 16.7899 19.7895 18.7339C19.7895 20.5339 20.1855 22.1299 20.9775 23.5219C21.7935 24.8899 22.8855 25.9579 24.2535 26.7259ZM31.8135 24.9979C31.1655 25.6939 30.2655 26.0539 29.1135 26.0779C27.9375 26.0779 26.9655 25.6699 26.1975 24.8539C25.4535 24.0379 24.9015 22.9939 24.5415 21.7219C24.1815 20.4499 24.0015 19.1059 24.0015 17.6899C24.0015 16.4659 24.1575 15.3139 24.4695 14.2339C24.8055 13.1299 25.3215 12.2299 26.0175 11.5339C26.7375 10.8379 27.6615 10.4899 28.7895 10.4899C29.6775 10.4659 30.4335 10.7059 31.0575 11.2099C31.6815 11.6899 32.1855 12.3379 32.5695 13.1539C32.9535 13.9699 33.2295 14.8819 33.3975 15.8899C33.5895 16.8739 33.6855 17.8819 33.6855 18.9139C33.6855 20.0899 33.5415 21.2299 33.2535 22.3339C32.9655 23.4139 32.4855 24.3019 31.8135 24.9979Z" fill="#242424"/>
<path d="M50.1261 25.2859C49.8381 25.622 49.3341 25.7899 48.6141 25.7899V27.302H56.6421V25.3939C56.3061 25.4179 55.9341 25.4419 55.5261 25.466C55.1421 25.466 54.7581 25.478 54.3741 25.502C54.4221 25.046 54.4581 24.6019 54.4821 24.17C54.5061 23.714 54.5181 23.2699 54.5181 22.8379V8.94195H53.1501C52.9821 9.10995 52.7181 9.26595 52.3581 9.40995C52.0221 9.55395 51.5301 9.68595 50.8821 9.80595C50.2581 9.90195 49.4061 9.94995 48.3261 9.94995V11.858C48.7101 11.834 49.1301 11.822 49.5861 11.822C50.0421 11.798 50.4741 11.774 50.8821 11.75C50.8341 12.2299 50.7981 12.686 50.7741 13.118C50.7501 13.526 50.7381 13.9339 50.7381 14.3419V21.7939C50.7381 22.5859 50.7021 23.2819 50.6301 23.882C50.5821 24.482 50.4141 24.9499 50.1261 25.2859Z" fill="#242424"/>
<path d="M64.9676 27.878C64.3676 27.878 63.7676 27.794 63.1676 27.626C62.5676 27.482 62.0036 27.182 61.4756 26.726C60.9716 26.246 60.5756 25.562 60.2876 24.674C59.9996 23.786 59.8556 22.61 59.8556 21.146L59.9276 11.318H57.2636V9.30201C57.9116 9.27801 58.5716 9.03801 59.2436 8.58201C59.9156 8.12601 60.5036 7.51401 61.0076 6.74601C61.5116 5.97801 61.8596 5.15001 62.0516 4.26201H63.7436V9.30201H69.2876V9.3067C70.9336 9.30656 74.2567 9.29721 75.6032 8.94385L75.605 8.94201H76.973V19.922C76.973 21.818 77.237 23.234 77.765 24.17C78.293 25.106 79.181 25.562 80.429 25.538C81.245 25.538 82.025 25.298 82.769 24.818C83.537 24.338 84.161 23.774 84.641 23.126V14.594C84.641 14.066 84.653 13.574 84.677 13.118C84.701 12.638 84.749 12.182 84.821 11.75C84.389 11.774 83.945 11.798 83.489 11.822C83.033 11.822 82.613 11.834 82.229 11.858V9.95001H83.273C84.329 9.95001 85.157 9.84201 85.757 9.62601C86.357 9.41001 86.789 9.18201 87.053 8.94201H88.421L88.385 22.19C88.385 22.574 88.373 23.102 88.349 23.774C88.325 24.422 88.289 24.998 88.241 25.502C88.649 25.478 89.069 25.454 89.501 25.43C89.957 25.406 90.377 25.394 90.761 25.394V27.302H85.037C84.989 26.918 84.941 26.558 84.893 26.222C84.869 25.886 84.833 25.562 84.785 25.25C84.041 25.946 83.177 26.558 82.193 27.086C81.209 27.614 80.177 27.878 79.097 27.878C77.753 27.878 76.637 27.626 75.749 27.122C74.885 26.618 74.237 25.79 73.805 24.638C73.373 23.462 73.157 21.914 73.157 19.994V13.3802C73.163 13.056 73.1814 12.6856 73.2213 12.3156C73.2425 12.1324 73.2679 11.9512 73.2974 11.772C73.3347 11.5612 73.381 11.3583 73.4382 11.1731H69.2876L63.7436 11.246L63.6716 20.858C63.6716 21.77 63.7436 22.574 63.8876 23.27C64.0556 23.942 64.3196 24.47 64.6796 24.854C65.0636 25.214 65.5796 25.394 66.2276 25.394C66.7796 25.394 67.3436 25.226 67.9196 24.89C68.5196 24.554 69.0836 24.002 69.6116 23.234L70.8356 24.314C70.2596 25.154 69.6836 25.814 69.1076 26.294C68.5316 26.774 67.9796 27.122 67.4516 27.338C66.9236 27.578 66.4436 27.722 66.0116 27.77C65.5796 27.842 65.2316 27.878 64.9676 27.878Z" fill="#242424"/>
<path fill-rule="evenodd" clip-rule="evenodd" d="M99.7156 27.878C98.2516 27.878 96.9436 27.518 95.7916 26.798C94.6636 26.054 93.7636 24.998 93.0916 23.63C92.4436 22.262 92.1196 20.654 92.1196 18.806C92.1196 16.838 92.5036 15.098 93.2716 13.586C94.0396 12.074 95.1196 10.886 96.5116 10.022C97.9036 9.15801 99.4876 8.72601 101.264 8.72601C102.008 8.72601 102.716 8.82201 103.388 9.01401C104.084 9.18201 104.66 9.38601 105.116 9.62601V5.52201C105.116 5.16201 105.128 4.76601 105.152 4.33401C105.176 3.87801 105.212 3.41001 105.26 2.93001C104.828 2.95401 104.384 2.97801 103.928 3.00201C103.472 3.02601 103.064 3.03801 102.704 3.03801V1.13001C103.784 1.13001 104.636 1.08201 105.26 0.986012C105.908 0.86601 106.4 0.734009 106.736 0.59001C107.096 0.44601 107.36 0.29001 107.528 0.122009H108.86V22.838C108.86 23.198 108.848 23.606 108.824 24.062C108.8 24.518 108.764 24.998 108.716 25.502L110.012 25.43C110.444 25.406 110.84 25.394 111.2 25.394V27.302H105.476C105.428 26.966 105.38 26.654 105.332 26.366L105.26 25.502C104.54 26.27 103.712 26.858 102.776 27.266C101.84 27.674 100.82 27.878 99.7156 27.878ZM101.192 25.61C101.936 25.61 102.656 25.406 103.352 24.998C104.072 24.59 104.66 24.074 105.116 23.45V11.606C104.66 11.27 104.12 11.018 103.496 10.85C102.896 10.658 102.272 10.562 101.624 10.562C100.448 10.562 99.4516 10.91 98.6356 11.606C97.8436 12.278 97.2556 13.202 96.8716 14.378C96.4876 15.554 96.3076 16.898 96.3316 18.41C96.3796 19.706 96.5836 20.906 96.9436 22.01C97.3036 23.114 97.8316 23.99 98.5276 24.638C99.2476 25.286 100.136 25.61 101.192 25.61Z" fill="#242424"/>
<path fill-rule="evenodd" clip-rule="evenodd" d="M116.848 26.726C118.192 27.494 119.704 27.878 121.384 27.878C122.2 27.878 123.088 27.746 124.048 27.482C125.032 27.242 125.992 26.822 126.928 26.222C127.864 25.598 128.692 24.746 129.412 23.666L128.296 22.694C127.84 23.294 127.276 23.81 126.604 24.242C125.956 24.674 125.26 25.01 124.516 25.25C123.796 25.466 123.112 25.574 122.464 25.574C121.12 25.574 120.028 25.226 119.188 24.53C118.348 23.834 117.736 22.85 117.352 21.578C116.992 20.306 116.812 18.854 116.812 17.222L129.196 17.006C129.196 15.518 128.992 14.258 128.584 13.226C128.176 12.17 127.612 11.318 126.892 10.67C126.196 9.99801 125.392 9.50601 124.48 9.19401C123.592 8.88201 122.644 8.72601 121.636 8.72601C119.836 8.72601 118.252 9.18201 116.884 10.094C115.516 10.982 114.448 12.158 113.68 13.622C112.936 15.086 112.564 16.658 112.564 18.338C112.564 20.282 112.948 21.974 113.716 23.414C114.484 24.83 115.528 25.934 116.848 26.726ZM125.272 15.35H116.956C117.22 13.718 117.76 12.506 118.576 11.714C119.392 10.898 120.436 10.49 121.708 10.49C122.524 10.49 123.196 10.706 123.724 11.138C124.252 11.57 124.636 12.158 124.876 12.902C125.14 13.622 125.272 14.438 125.272 15.35Z" fill="#242424"/>
<path d="M50.1292 3.13043L52.9576 0.302005L55.786 3.13043L52.9576 5.95886L50.1292 3.13043Z" fill="#242424"/>
</svg>
