<svg width="28" height="28" viewBox="0 0 28 28" fill="none" xmlns="http://www.w3.org/2000/svg">
<g clip-path="url(#clip0_7057_3570)">
<path d="M14 3.5C8.20123 3.5 3.5 8.20123 3.5 14C3.5 18.448 6.26716 22.2514 10.1733 23.781C10.0817 22.9505 9.99877 21.6723 10.2096 20.7658C10.4006 19.9465 11.4411 15.5469 11.4411 15.5469C11.4411 15.5469 11.1274 14.9178 11.1274 13.9879C11.1274 12.5283 11.9735 11.4377 13.0269 11.4377C13.9231 11.4377 14.3552 12.11 14.3552 12.9163C14.3552 13.8168 13.7814 15.1641 13.4858 16.412C13.2386 17.4568 14.0095 18.3098 15.0405 18.3098C16.9072 18.3098 18.3409 16.342 18.3409 13.5014C18.3409 10.9874 16.5347 9.22963 13.9551 9.22963C10.9675 9.22963 9.21407 11.4705 9.21407 13.7865C9.21407 14.6888 9.56148 15.6567 9.99531 16.183C10.0809 16.2867 10.0938 16.3783 10.0679 16.4837C9.9884 16.8156 9.81123 17.5285 9.77667 17.6746C9.73086 17.8664 9.62457 17.9079 9.4258 17.8154C8.11395 17.2053 7.29469 15.2877 7.29469 13.7477C7.29469 10.4352 9.70148 7.39407 14.2325 7.39407C17.8751 7.39407 20.7053 9.98926 20.7053 13.4581C20.7053 16.927 18.4238 19.9889 15.2565 19.9889C14.1927 19.9889 13.192 19.4358 12.8498 18.7833C12.8498 18.7833 12.3235 20.7883 12.1956 21.2791C11.9588 22.1909 11.3184 23.3342 10.8906 24.0316C11.8732 24.3358 12.9172 24.5 13.9991 24.5C19.7979 24.5 24.4991 19.7988 24.4991 14C24.4991 8.20123 19.7988 3.5 14 3.5Z" fill="#242424"/>
</g>
<path d="M19.8727 9.44856C20.6017 9.44856 21.1927 8.85758 21.1927 8.12858C21.1927 7.39957 20.6017 6.80859 19.8727 6.80859C19.1437 6.80859 18.5527 7.39957 18.5527 8.12858C18.5527 8.85758 19.1437 9.44856 19.8727 9.44856Z" fill="#242424"/>
<defs>
<clipPath id="clip0_7057_3570">
<rect width="21" height="21" fill="white" transform="translate(3.5 3.5)"/>
</clipPath>
</defs>
</svg>
