<svg width="28" height="28" viewBox="0 0 28 28" fill="none" xmlns="http://www.w3.org/2000/svg">
<path d="M14 4.9828C16.9373 4.9828 17.2849 4.99415 18.4451 5.04699C19.5175 5.09589 20.0999 5.27492 20.4877 5.42556C20.9661 5.6017 21.3988 5.88297 21.754 6.24864C22.1196 6.60381 22.4009 7.03654 22.577 7.51491C22.7277 7.90266 22.9067 8.48514 22.9556 9.55755C23.0084 10.7177 23.0198 11.0653 23.0198 14.0026C23.0198 16.9399 23.0084 17.2875 22.9556 18.4477C22.9067 19.5201 22.7277 20.1026 22.577 20.4903C22.3938 20.9646 22.1135 21.3953 21.754 21.7548C21.3944 22.1143 20.9637 22.3947 20.4894 22.5779C20.1017 22.7286 19.5192 22.9076 18.4468 22.9565C17.2871 23.0093 16.9391 23.0207 14.0017 23.0207C11.0644 23.0207 10.7164 23.0093 9.55668 22.9565C8.48428 22.9076 7.90179 22.7286 7.51405 22.5779C7.03568 22.4018 6.60295 22.1205 6.24778 21.7548C5.88211 21.3997 5.60084 20.9669 5.4247 20.4886C5.27405 20.1008 5.09503 19.5183 5.04613 18.4459C4.99329 17.2858 4.98194 16.9382 4.98194 14.0009C4.98194 11.0635 4.99329 10.716 5.04613 9.5558C5.09503 8.4834 5.27405 7.90091 5.4247 7.51317C5.60084 7.0348 5.88211 6.60207 6.24778 6.24689C6.60295 5.88123 7.03568 5.59995 7.51405 5.42381C7.90179 5.27317 8.48428 5.09415 9.55668 5.04524C10.7169 4.99241 11.0644 4.98105 14.0017 4.98105L14 4.9828ZM14.0017 2.99911C11.0142 2.99911 10.6396 3.01178 9.4663 3.06549C8.29303 3.11919 7.49396 3.30651 6.79533 3.57811C6.06115 3.85448 5.396 4.28749 4.84614 4.847C4.28663 5.39686 3.85362 6.06201 3.57725 6.79619C3.30565 7.49483 3.11964 8.29564 3.06637 9.46629C3.0131 10.6369 3 11.0133 3 14.0009C3 16.9884 3.01266 17.363 3.06637 18.5363C3.12008 19.7096 3.30565 20.5069 3.57725 21.2055C3.85373 21.9394 4.28673 22.6042 4.84614 23.1538C5.39581 23.7137 6.06101 24.1469 6.79533 24.4232C7.49396 24.6952 8.29477 24.8812 9.46542 24.9345C10.6361 24.9878 11.0133 25.0009 14.0009 25.0009C16.9884 25.0009 17.363 24.9882 18.5363 24.9345C19.7096 24.8808 20.506 24.6952 21.2047 24.4232C21.9356 24.1407 22.5995 23.7086 23.1536 23.1545C23.7077 22.6004 24.1399 21.9365 24.4223 21.2055C24.6943 20.5069 24.8804 19.7061 24.9336 18.5354C24.9869 17.3648 25 16.9875 25 14C25 11.0125 24.9873 10.6378 24.9336 9.46454C24.8799 8.29127 24.6943 7.49483 24.4223 6.79619C24.1462 6.06226 23.7133 5.39738 23.1539 4.84788C22.6041 4.28805 21.9389 3.85474 21.2047 3.57811C20.506 3.30651 19.7052 3.1205 18.5346 3.06723C17.3639 3.01396 16.9875 3.00086 14 3.00086L14.0017 2.99911Z" fill="#242424"/>
<path d="M14 8.35458C12.8829 8.35458 11.7908 8.68586 10.8619 9.30652C9.93302 9.92718 9.20905 10.8094 8.78153 11.8415C8.35401 12.8736 8.24215 14.0093 8.4601 15.105C8.67805 16.2007 9.21601 17.2072 10.006 17.9971C10.7959 18.7871 11.8024 19.325 12.8981 19.543C13.9938 19.7609 15.1295 19.6491 16.1616 19.2215C17.1937 18.794 18.0759 18.07 18.6965 17.1412C19.3172 16.2123 19.6485 15.1202 19.6485 14.003C19.6485 13.2613 19.5025 12.5267 19.2186 11.8414C18.9348 11.1561 18.5187 10.5334 17.9942 10.0089C17.4697 9.48433 16.847 9.06827 16.1617 8.78443C15.4763 8.50059 14.7418 8.35453 14 8.35458ZM14 17.6709C13.2746 17.6709 12.5655 17.4558 11.9623 17.0527C11.3591 16.6497 10.889 16.0769 10.6114 15.4067C10.3338 14.7365 10.2611 13.999 10.4027 13.2875C10.5442 12.576 10.8935 11.9225 11.4065 11.4095C11.9194 10.8965 12.573 10.5472 13.2845 10.4057C13.996 10.2642 14.7334 10.3368 15.4036 10.6144C16.0739 10.892 16.6467 11.3621 17.0497 11.9653C17.4527 12.5685 17.6679 13.2776 17.6679 14.003C17.6679 14.9758 17.2814 15.9087 16.5936 16.5966C15.9057 17.2844 14.9728 17.6709 14 17.6709Z" fill="#242424"/>
<path d="M19.8727 9.44767C20.6017 9.44767 21.1927 8.8567 21.1927 8.12769C21.1927 7.39868 20.6017 6.80771 19.8727 6.80771C19.1437 6.80771 18.5527 7.39868 18.5527 8.12769C18.5527 8.8567 19.1437 9.44767 19.8727 9.44767Z" fill="#242424"/>
</svg>
