<svg width="28" height="28" viewBox="0 0 28 28" fill="none" xmlns="http://www.w3.org/2000/svg">
<path fill-rule="evenodd" clip-rule="evenodd" d="M23.2995 6.33634C24.3243 6.6047 25.1297 7.39254 25.404 8.39506C25.8997 10.2103 25.9017 14 25.9017 14C25.9017 14 25.9017 17.7896 25.404 19.6049C25.1297 20.6074 24.3243 21.3953 23.2995 21.6636C21.444 22.1505 13.9999 22.1505 13.9999 22.1505C13.9999 22.1505 6.55592 22.1505 4.70031 21.6636C3.67552 21.3953 2.87017 20.6074 2.59585 19.6049C2.09814 17.7896 2.09814 14 2.09814 14C2.09814 14 2.09814 10.2103 2.59585 8.39506C2.87017 7.39254 3.67552 6.6047 4.70031 6.33634C6.55592 5.84946 13.9999 5.84946 13.9999 5.84946C13.9999 5.84946 21.444 5.84946 23.2995 6.33634ZM17.8018 13.9983L11.6177 17.4908V10.5057L17.8018 13.9983Z" fill="#242424"/>
</svg>
