<svg width="28" height="28" viewBox="0 0 28 28" fill="none" xmlns="http://www.w3.org/2000/svg">
<path d="M22.063 9.86337C22.0754 10.0421 22.0754 10.2209 22.0754 10.4013C22.0754 15.8986 17.8904 22.2385 10.2381 22.2385V22.2352C7.97763 22.2385 5.76407 21.591 3.86108 20.3702C4.18978 20.4097 4.52013 20.4295 4.85129 20.4303C6.72462 20.4319 8.5444 19.8034 10.0182 18.6459C8.23795 18.6122 6.67684 17.4514 6.13148 15.7569C6.7551 15.8771 7.39767 15.8524 8.00975 15.6852C6.06888 15.2931 4.67253 13.5878 4.67253 11.6074C4.67253 11.5892 4.67253 11.5719 4.67253 11.5546C5.25084 11.8767 5.89835 12.0555 6.56069 12.0753C4.73267 10.8536 4.16919 8.42172 5.27308 6.52038C7.38531 9.11948 10.5018 10.6995 13.8472 10.8668C13.5119 9.42182 13.97 7.90767 15.0508 6.89192C16.7264 5.31681 19.3618 5.39754 20.9369 7.07233C21.8686 6.88862 22.7616 6.54674 23.5788 6.06235C23.2682 7.02537 22.6182 7.84341 21.75 8.36323C22.5746 8.26602 23.3803 8.04524 24.139 7.70831C23.5804 8.54529 22.8769 9.27435 22.063 9.86337Z" fill="#242424"/>
</svg>
