<svg width="1440" height="917" viewBox="0 0 1440 917" fill="none" xmlns="http://www.w3.org/2000/svg">
<mask id="path-1-inside-1_7283_9384" fill="white">
<path d="M0 0H66.4102V66.4102H0V0Z"/>
</mask>
<path d="M66.4102 0H67.4113V-1.00115H66.4102V0ZM66.4102 66.4102V67.4113H67.4113V66.4102H66.4102ZM0 1.00115H66.4102V-1.00115H0V1.00115ZM65.409 0V66.4102H67.4113V0H65.409ZM66.4102 65.409H0V67.4113H66.4102V65.409Z" fill="#F8F8F8" mask="url(#path-1-inside-1_7283_9384)"/>
<rect x="65.9098" y="0.500574" width="65.409" height="65.409" stroke="#F8F8F8" stroke-width="1.00115"/>
<rect x="131.319" y="0.500574" width="65.409" height="65.409" stroke="#F8F8F8" stroke-width="1.00115"/>
<rect x="196.728" y="0.500574" width="65.409" height="65.409" stroke="#F8F8F8" stroke-width="1.00115"/>
<rect x="262.136" y="0.500574" width="65.409" height="65.409" stroke="#F8F8F8" stroke-width="1.00115"/>
<rect x="327.545" y="0.500574" width="65.409" height="65.409" stroke="#F8F8F8" stroke-width="1.00115"/>
<rect x="392.955" y="0.500574" width="65.409" height="65.409" stroke="#F8F8F8" stroke-width="1.00115"/>
<rect x="458.364" y="0.500574" width="65.409" height="65.409" stroke="#F8F8F8" stroke-width="1.00115"/>
<rect x="523.773" y="0.500574" width="65.409" height="65.409" stroke="#F8F8F8" stroke-width="1.00115"/>
<rect x="589.182" y="0.500574" width="65.409" height="65.409" stroke="#F8F8F8" stroke-width="1.00115"/>
<rect x="654.591" y="0.500574" width="65.409" height="65.409" stroke="#F8F8F8" stroke-width="1.00115"/>
<rect x="720" y="0.500574" width="65.409" height="65.409" stroke="#F8F8F8" stroke-width="1.00115"/>
<rect x="785.409" y="0.500574" width="65.409" height="65.409" stroke="#F8F8F8" stroke-width="1.00115"/>
<rect x="850.818" y="0.500574" width="65.409" height="65.409" stroke="#F8F8F8" stroke-width="1.00115"/>
<rect x="916.227" y="0.500574" width="65.409" height="65.409" stroke="#F8F8F8" stroke-width="1.00115"/>
<rect x="981.636" y="0.500574" width="65.409" height="65.409" stroke="#F8F8F8" stroke-width="1.00115"/>
<rect x="1047.05" y="0.500574" width="65.409" height="65.409" stroke="#F8F8F8" stroke-width="1.00115"/>
<rect x="1112.45" y="0.500574" width="65.409" height="65.409" stroke="#F8F8F8" stroke-width="1.00115"/>
<rect x="1177.86" y="0.500574" width="65.409" height="65.409" stroke="#F8F8F8" stroke-width="1.00115"/>
<rect x="1243.27" y="0.500574" width="65.409" height="65.409" stroke="#F8F8F8" stroke-width="1.00115"/>
<rect x="1308.68" y="0.500574" width="65.409" height="65.409" stroke="#F8F8F8" stroke-width="1.00115"/>
<mask id="path-23-inside-2_7283_9384" fill="white">
<path d="M1373.59 0H1440V66.4102H1373.59V0Z"/>
</mask>
<path d="M1373.59 0V-1.00115H1372.59V0H1373.59ZM1373.59 66.4102H1372.59V67.4113H1373.59V66.4102ZM1373.59 1.00115H1440V-1.00115H1373.59V1.00115ZM1440 65.409H1373.59V67.4113H1440V65.409ZM1374.59 66.4102V0H1372.59V66.4102H1374.59Z" fill="#F8F8F8" mask="url(#path-23-inside-2_7283_9384)"/>
<mask id="path-25-inside-3_7283_9384" fill="white">
<path d="M0 65.4102H66.4102V131.82H0V65.4102Z"/>
</mask>
<path d="M66.4102 65.4102H67.4113V64.409H66.4102V65.4102ZM66.4102 131.82V132.821H67.4113V131.82H66.4102ZM0 66.4113H66.4102V64.409H0V66.4113ZM65.409 65.4102V131.82H67.4113V65.4102H65.409ZM66.4102 130.819H0V132.821H66.4102V130.819Z" fill="#F8F8F8" mask="url(#path-25-inside-3_7283_9384)"/>
<rect x="65.9098" y="65.9107" width="65.409" height="65.409" stroke="#F8F8F8" stroke-width="1.00115"/>
<rect x="131.319" y="65.9107" width="65.409" height="65.409" stroke="#F8F8F8" stroke-width="1.00115"/>
<rect x="196.728" y="65.9107" width="65.409" height="65.409" stroke="#F8F8F8" stroke-width="1.00115"/>
<rect x="262.136" y="65.9107" width="65.409" height="65.409" stroke="#F8F8F8" stroke-width="1.00115"/>
<rect x="327.545" y="65.9107" width="65.409" height="65.409" stroke="#F8F8F8" stroke-width="1.00115"/>
<rect x="392.955" y="65.9107" width="65.409" height="65.409" stroke="#F8F8F8" stroke-width="1.00115"/>
<rect x="458.364" y="65.9107" width="65.409" height="65.409" stroke="#F8F8F8" stroke-width="1.00115"/>
<rect x="523.773" y="65.9107" width="65.409" height="65.409" stroke="#F8F8F8" stroke-width="1.00115"/>
<rect x="589.182" y="65.9107" width="65.409" height="65.409" stroke="#F8F8F8" stroke-width="1.00115"/>
<rect x="654.591" y="65.9107" width="65.409" height="65.409" stroke="#F8F8F8" stroke-width="1.00115"/>
<rect x="720" y="65.9107" width="65.409" height="65.409" stroke="#F8F8F8" stroke-width="1.00115"/>
<rect x="785.409" y="65.9107" width="65.409" height="65.409" stroke="#F8F8F8" stroke-width="1.00115"/>
<rect x="850.818" y="65.9107" width="65.409" height="65.409" stroke="#F8F8F8" stroke-width="1.00115"/>
<rect x="916.227" y="65.9107" width="65.409" height="65.409" stroke="#F8F8F8" stroke-width="1.00115"/>
<rect x="981.636" y="65.9107" width="65.409" height="65.409" stroke="#F8F8F8" stroke-width="1.00115"/>
<rect x="1047.05" y="65.9107" width="65.409" height="65.409" stroke="#F8F8F8" stroke-width="1.00115"/>
<rect x="1112.45" y="65.9107" width="65.409" height="65.409" stroke="#F8F8F8" stroke-width="1.00115"/>
<rect x="1177.86" y="65.9107" width="65.409" height="65.409" stroke="#F8F8F8" stroke-width="1.00115"/>
<rect x="1243.27" y="65.9107" width="65.409" height="65.409" stroke="#F8F8F8" stroke-width="1.00115"/>
<rect x="1308.68" y="65.9107" width="65.409" height="65.409" stroke="#F8F8F8" stroke-width="1.00115"/>
<mask id="path-47-inside-4_7283_9384" fill="white">
<path d="M1373.59 65.4102H1440V131.82H1373.59V65.4102Z"/>
</mask>
<path d="M1373.59 65.4102V64.409H1372.59V65.4102H1373.59ZM1373.59 131.82H1372.59V132.821H1373.59V131.82ZM1373.59 66.4113H1440V64.409H1373.59V66.4113ZM1440 130.819H1373.59V132.821H1440V130.819ZM1374.59 131.82V65.4102H1372.59V131.82H1374.59Z" fill="#F8F8F8" mask="url(#path-47-inside-4_7283_9384)"/>
<mask id="path-49-inside-5_7283_9384" fill="white">
<path d="M0 130.82H66.4102V197.231H0V130.82Z"/>
</mask>
<path d="M66.4102 130.82H67.4113V129.819H66.4102V130.82ZM66.4102 197.231V198.232H67.4113V197.231H66.4102ZM0 131.822H66.4102V129.819H0V131.822ZM65.409 130.82V197.231H67.4113V130.82H65.409ZM66.4102 196.229H0V198.232H66.4102V196.229Z" fill="#F8F8F8" mask="url(#path-49-inside-5_7283_9384)"/>
<rect x="65.9098" y="131.321" width="65.409" height="65.409" stroke="#F8F8F8" stroke-width="1.00115"/>
<rect x="131.319" y="131.321" width="65.409" height="65.409" stroke="#F8F8F8" stroke-width="1.00115"/>
<rect x="196.728" y="131.321" width="65.409" height="65.409" stroke="#F8F8F8" stroke-width="1.00115"/>
<rect x="262.136" y="131.321" width="65.409" height="65.409" stroke="#F8F8F8" stroke-width="1.00115"/>
<rect x="327.545" y="131.321" width="65.409" height="65.409" stroke="#F8F8F8" stroke-width="1.00115"/>
<rect x="392.955" y="131.321" width="65.409" height="65.409" stroke="#F8F8F8" stroke-width="1.00115"/>
<rect x="458.364" y="131.321" width="65.409" height="65.409" stroke="#F8F8F8" stroke-width="1.00115"/>
<rect x="523.773" y="131.321" width="65.409" height="65.409" stroke="#F8F8F8" stroke-width="1.00115"/>
<rect x="589.182" y="131.321" width="65.409" height="65.409" stroke="#F8F8F8" stroke-width="1.00115"/>
<rect x="654.591" y="131.321" width="65.409" height="65.409" stroke="#F8F8F8" stroke-width="1.00115"/>
<rect x="720" y="131.321" width="65.409" height="65.409" stroke="#F8F8F8" stroke-width="1.00115"/>
<rect x="785.409" y="131.321" width="65.409" height="65.409" stroke="#F8F8F8" stroke-width="1.00115"/>
<rect x="850.818" y="131.321" width="65.409" height="65.409" stroke="#F8F8F8" stroke-width="1.00115"/>
<rect x="916.227" y="131.321" width="65.409" height="65.409" stroke="#F8F8F8" stroke-width="1.00115"/>
<rect x="981.636" y="131.321" width="65.409" height="65.409" stroke="#F8F8F8" stroke-width="1.00115"/>
<rect x="1047.05" y="131.321" width="65.409" height="65.409" stroke="#F8F8F8" stroke-width="1.00115"/>
<rect x="1112.45" y="131.321" width="65.409" height="65.409" stroke="#F8F8F8" stroke-width="1.00115"/>
<rect x="1177.86" y="131.321" width="65.409" height="65.409" stroke="#F8F8F8" stroke-width="1.00115"/>
<rect x="1243.27" y="131.321" width="65.409" height="65.409" stroke="#F8F8F8" stroke-width="1.00115"/>
<rect x="1308.68" y="131.321" width="65.409" height="65.409" stroke="#F8F8F8" stroke-width="1.00115"/>
<mask id="path-71-inside-6_7283_9384" fill="white">
<path d="M1373.59 130.82H1440V197.231H1373.59V130.82Z"/>
</mask>
<path d="M1373.59 130.82V129.819H1372.59V130.82H1373.59ZM1373.59 197.231H1372.59V198.232H1373.59V197.231ZM1373.59 131.822H1440V129.819H1373.59V131.822ZM1440 196.229H1373.59V198.232H1440V196.229ZM1374.59 197.231V130.82H1372.59V197.231H1374.59Z" fill="#F8F8F8" mask="url(#path-71-inside-6_7283_9384)"/>
<mask id="path-73-inside-7_7283_9384" fill="white">
<path d="M0 196.231H66.4102V262.641H0V196.231Z"/>
</mask>
<path d="M66.4102 196.231H67.4113V195.229H66.4102V196.231ZM66.4102 262.641V263.642H67.4113V262.641H66.4102ZM0 197.232H66.4102V195.229H0V197.232ZM65.409 196.231V262.641H67.4113V196.231H65.409ZM66.4102 261.64H0V263.642H66.4102V261.64Z" fill="#F8F8F8" mask="url(#path-73-inside-7_7283_9384)"/>
<rect x="65.9098" y="196.731" width="65.409" height="65.409" stroke="#F8F8F8" stroke-width="1.00115"/>
<rect x="131.319" y="196.731" width="65.409" height="65.409" stroke="#F8F8F8" stroke-width="1.00115"/>
<rect x="196.728" y="196.731" width="65.409" height="65.409" stroke="#F8F8F8" stroke-width="1.00115"/>
<rect x="262.136" y="196.731" width="65.409" height="65.409" stroke="#F8F8F8" stroke-width="1.00115"/>
<rect x="327.545" y="196.731" width="65.409" height="65.409" stroke="#F8F8F8" stroke-width="1.00115"/>
<rect x="392.955" y="196.731" width="65.409" height="65.409" stroke="#F8F8F8" stroke-width="1.00115"/>
<rect x="458.364" y="196.731" width="65.409" height="65.409" stroke="#F8F8F8" stroke-width="1.00115"/>
<rect x="523.773" y="196.731" width="65.409" height="65.409" stroke="#F8F8F8" stroke-width="1.00115"/>
<rect x="589.182" y="196.731" width="65.409" height="65.409" stroke="#F8F8F8" stroke-width="1.00115"/>
<rect x="654.591" y="196.731" width="65.409" height="65.409" stroke="#F8F8F8" stroke-width="1.00115"/>
<rect x="720" y="196.731" width="65.409" height="65.409" stroke="#F8F8F8" stroke-width="1.00115"/>
<rect x="785.409" y="196.731" width="65.409" height="65.409" stroke="#F8F8F8" stroke-width="1.00115"/>
<rect x="850.818" y="196.731" width="65.409" height="65.409" stroke="#F8F8F8" stroke-width="1.00115"/>
<rect x="916.227" y="196.731" width="65.409" height="65.409" stroke="#F8F8F8" stroke-width="1.00115"/>
<rect x="981.636" y="196.731" width="65.409" height="65.409" stroke="#F8F8F8" stroke-width="1.00115"/>
<rect x="1047.05" y="196.731" width="65.409" height="65.409" stroke="#F8F8F8" stroke-width="1.00115"/>
<rect x="1112.45" y="196.731" width="65.409" height="65.409" stroke="#F8F8F8" stroke-width="1.00115"/>
<rect x="1177.86" y="196.731" width="65.409" height="65.409" stroke="#F8F8F8" stroke-width="1.00115"/>
<rect x="1243.27" y="196.731" width="65.409" height="65.409" stroke="#F8F8F8" stroke-width="1.00115"/>
<rect x="1308.68" y="196.731" width="65.409" height="65.409" stroke="#F8F8F8" stroke-width="1.00115"/>
<mask id="path-95-inside-8_7283_9384" fill="white">
<path d="M1373.59 196.231H1440V262.641H1373.59V196.231Z"/>
</mask>
<path d="M1373.59 196.231V195.229H1372.59V196.231H1373.59ZM1373.59 262.641H1372.59V263.642H1373.59V262.641ZM1373.59 197.232H1440V195.229H1373.59V197.232ZM1440 261.64H1373.59V263.642H1440V261.64ZM1374.59 262.641V196.231H1372.59V262.641H1374.59Z" fill="#F8F8F8" mask="url(#path-95-inside-8_7283_9384)"/>
<mask id="path-97-inside-9_7283_9384" fill="white">
<path d="M0 261.641H66.4102V328.051H0V261.641Z"/>
</mask>
<path d="M66.4102 261.641H67.4113V260.64H66.4102V261.641ZM66.4102 328.051V329.052H67.4113V328.051H66.4102ZM0 262.642H66.4102V260.64H0V262.642ZM65.409 261.641V328.051H67.4113V261.641H65.409ZM66.4102 327.05H0V329.052H66.4102V327.05Z" fill="#F8F8F8" mask="url(#path-97-inside-9_7283_9384)"/>
<rect x="65.9098" y="262.141" width="65.409" height="65.409" stroke="#F8F8F8" stroke-width="1.00115"/>
<rect x="131.319" y="262.141" width="65.409" height="65.409" stroke="#F8F8F8" stroke-width="1.00115"/>
<rect x="196.728" y="262.141" width="65.409" height="65.409" stroke="#F8F8F8" stroke-width="1.00115"/>
<rect x="262.136" y="262.141" width="65.409" height="65.409" stroke="#F8F8F8" stroke-width="1.00115"/>
<rect x="327.545" y="262.141" width="65.409" height="65.409" stroke="#F8F8F8" stroke-width="1.00115"/>
<rect x="392.955" y="262.141" width="65.409" height="65.409" stroke="#F8F8F8" stroke-width="1.00115"/>
<rect x="458.364" y="262.141" width="65.409" height="65.409" stroke="#F8F8F8" stroke-width="1.00115"/>
<rect x="523.773" y="262.141" width="65.409" height="65.409" stroke="#F8F8F8" stroke-width="1.00115"/>
<rect x="589.182" y="262.141" width="65.409" height="65.409" stroke="#F8F8F8" stroke-width="1.00115"/>
<rect x="654.591" y="262.141" width="65.409" height="65.409" stroke="#F8F8F8" stroke-width="1.00115"/>
<rect x="720" y="262.141" width="65.409" height="65.409" stroke="#F8F8F8" stroke-width="1.00115"/>
<rect x="785.409" y="262.141" width="65.409" height="65.409" stroke="#F8F8F8" stroke-width="1.00115"/>
<rect x="850.818" y="262.141" width="65.409" height="65.409" stroke="#F8F8F8" stroke-width="1.00115"/>
<rect x="916.227" y="262.141" width="65.409" height="65.409" stroke="#F8F8F8" stroke-width="1.00115"/>
<rect x="981.636" y="262.141" width="65.409" height="65.409" stroke="#F8F8F8" stroke-width="1.00115"/>
<rect x="1047.05" y="262.141" width="65.409" height="65.409" stroke="#F8F8F8" stroke-width="1.00115"/>
<rect x="1112.45" y="262.141" width="65.409" height="65.409" stroke="#F8F8F8" stroke-width="1.00115"/>
<rect x="1177.86" y="262.141" width="65.409" height="65.409" stroke="#F8F8F8" stroke-width="1.00115"/>
<rect x="1243.27" y="262.141" width="65.409" height="65.409" stroke="#F8F8F8" stroke-width="1.00115"/>
<rect x="1308.68" y="262.141" width="65.409" height="65.409" stroke="#F8F8F8" stroke-width="1.00115"/>
<mask id="path-119-inside-10_7283_9384" fill="white">
<path d="M1373.59 261.641H1440V328.051H1373.59V261.641Z"/>
</mask>
<path d="M1373.59 261.641V260.64H1372.59V261.641H1373.59ZM1373.59 328.051H1372.59V329.052H1373.59V328.051ZM1373.59 262.642H1440V260.64H1373.59V262.642ZM1440 327.05H1373.59V329.052H1440V327.05ZM1374.59 328.051V261.641H1372.59V328.051H1374.59Z" fill="#F8F8F8" mask="url(#path-119-inside-10_7283_9384)"/>
<mask id="path-121-inside-11_7283_9384" fill="white">
<path d="M0 327.051H66.4102V393.461H0V327.051Z"/>
</mask>
<path d="M66.4102 327.051H67.4113V326.05H66.4102V327.051ZM66.4102 393.461V394.462H67.4113V393.461H66.4102ZM0 328.052H66.4102V326.05H0V328.052ZM65.409 327.051V393.461H67.4113V327.051H65.409ZM66.4102 392.46H0V394.462H66.4102V392.46Z" fill="#F8F8F8" mask="url(#path-121-inside-11_7283_9384)"/>
<rect x="65.9098" y="327.552" width="65.409" height="65.409" stroke="#F8F8F8" stroke-width="1.00115"/>
<rect x="131.319" y="327.552" width="65.409" height="65.409" stroke="#F8F8F8" stroke-width="1.00115"/>
<rect x="196.728" y="327.552" width="65.409" height="65.409" stroke="#F8F8F8" stroke-width="1.00115"/>
<rect x="262.136" y="327.552" width="65.409" height="65.409" stroke="#F8F8F8" stroke-width="1.00115"/>
<rect x="327.545" y="327.552" width="65.409" height="65.409" stroke="#F8F8F8" stroke-width="1.00115"/>
<rect x="392.955" y="327.552" width="65.409" height="65.409" stroke="#F8F8F8" stroke-width="1.00115"/>
<rect x="458.364" y="327.552" width="65.409" height="65.409" stroke="#F8F8F8" stroke-width="1.00115"/>
<rect x="523.773" y="327.552" width="65.409" height="65.409" stroke="#F8F8F8" stroke-width="1.00115"/>
<rect x="589.182" y="327.552" width="65.409" height="65.409" stroke="#F8F8F8" stroke-width="1.00115"/>
<rect x="654.591" y="327.552" width="65.409" height="65.409" stroke="#F8F8F8" stroke-width="1.00115"/>
<rect x="720" y="327.552" width="65.409" height="65.409" stroke="#F8F8F8" stroke-width="1.00115"/>
<rect x="785.409" y="327.552" width="65.409" height="65.409" stroke="#F8F8F8" stroke-width="1.00115"/>
<rect x="850.818" y="327.552" width="65.409" height="65.409" stroke="#F8F8F8" stroke-width="1.00115"/>
<rect x="916.227" y="327.552" width="65.409" height="65.409" stroke="#F8F8F8" stroke-width="1.00115"/>
<rect x="981.636" y="327.552" width="65.409" height="65.409" stroke="#F8F8F8" stroke-width="1.00115"/>
<rect x="1047.05" y="327.552" width="65.409" height="65.409" stroke="#F8F8F8" stroke-width="1.00115"/>
<rect x="1112.45" y="327.552" width="65.409" height="65.409" stroke="#F8F8F8" stroke-width="1.00115"/>
<rect x="1177.86" y="327.552" width="65.409" height="65.409" stroke="#F8F8F8" stroke-width="1.00115"/>
<rect x="1243.27" y="327.552" width="65.409" height="65.409" stroke="#F8F8F8" stroke-width="1.00115"/>
<rect x="1308.68" y="327.552" width="65.409" height="65.409" stroke="#F8F8F8" stroke-width="1.00115"/>
<mask id="path-143-inside-12_7283_9384" fill="white">
<path d="M1373.59 327.051H1440V393.461H1373.59V327.051Z"/>
</mask>
<path d="M1373.59 327.051V326.05H1372.59V327.051H1373.59ZM1373.59 393.461H1372.59V394.462H1373.59V393.461ZM1373.59 328.052H1440V326.05H1373.59V328.052ZM1440 392.46H1373.59V394.462H1440V392.46ZM1374.59 393.461V327.051H1372.59V393.461H1374.59Z" fill="#F8F8F8" mask="url(#path-143-inside-12_7283_9384)"/>
<mask id="path-145-inside-13_7283_9384" fill="white">
<path d="M0 392.461H66.4102V458.871H0V392.461Z"/>
</mask>
<path d="M66.4102 392.461H67.4113V391.46H66.4102V392.461ZM66.4102 458.871V459.873H67.4113V458.871H66.4102ZM0 393.462H66.4102V391.46H0V393.462ZM65.409 392.461V458.871H67.4113V392.461H65.409ZM66.4102 457.87H0V459.873H66.4102V457.87Z" fill="#F8F8F8" mask="url(#path-145-inside-13_7283_9384)"/>
<rect x="65.9098" y="392.962" width="65.409" height="65.409" stroke="#F8F8F8" stroke-width="1.00115"/>
<rect x="131.319" y="392.962" width="65.409" height="65.409" stroke="#F8F8F8" stroke-width="1.00115"/>
<rect x="196.728" y="392.962" width="65.409" height="65.409" stroke="#F8F8F8" stroke-width="1.00115"/>
<rect x="262.136" y="392.962" width="65.409" height="65.409" stroke="#F8F8F8" stroke-width="1.00115"/>
<rect x="327.545" y="392.962" width="65.409" height="65.409" stroke="#F8F8F8" stroke-width="1.00115"/>
<rect x="392.955" y="392.962" width="65.409" height="65.409" stroke="#F8F8F8" stroke-width="1.00115"/>
<rect x="458.364" y="392.962" width="65.409" height="65.409" stroke="#F8F8F8" stroke-width="1.00115"/>
<rect x="523.773" y="392.962" width="65.409" height="65.409" stroke="#F8F8F8" stroke-width="1.00115"/>
<rect x="589.182" y="392.962" width="65.409" height="65.409" stroke="#F8F8F8" stroke-width="1.00115"/>
<rect x="654.591" y="392.962" width="65.409" height="65.409" stroke="#F8F8F8" stroke-width="1.00115"/>
<rect x="720" y="392.962" width="65.409" height="65.409" stroke="#F8F8F8" stroke-width="1.00115"/>
<rect x="785.409" y="392.962" width="65.409" height="65.409" stroke="#F8F8F8" stroke-width="1.00115"/>
<rect x="850.818" y="392.962" width="65.409" height="65.409" stroke="#F8F8F8" stroke-width="1.00115"/>
<rect x="916.227" y="392.962" width="65.409" height="65.409" stroke="#F8F8F8" stroke-width="1.00115"/>
<rect x="981.636" y="392.962" width="65.409" height="65.409" stroke="#F8F8F8" stroke-width="1.00115"/>
<rect x="1047.05" y="392.962" width="65.409" height="65.409" stroke="#F8F8F8" stroke-width="1.00115"/>
<rect x="1112.45" y="392.962" width="65.409" height="65.409" stroke="#F8F8F8" stroke-width="1.00115"/>
<rect x="1177.86" y="392.962" width="65.409" height="65.409" stroke="#F8F8F8" stroke-width="1.00115"/>
<rect x="1243.27" y="392.962" width="65.409" height="65.409" stroke="#F8F8F8" stroke-width="1.00115"/>
<rect x="1308.68" y="392.962" width="65.409" height="65.409" stroke="#F8F8F8" stroke-width="1.00115"/>
<mask id="path-167-inside-14_7283_9384" fill="white">
<path d="M1373.59 392.461H1440V458.871H1373.59V392.461Z"/>
</mask>
<path d="M1373.59 392.461V391.46H1372.59V392.461H1373.59ZM1373.59 458.871H1372.59V459.873H1373.59V458.871ZM1373.59 393.462H1440V391.46H1373.59V393.462ZM1440 457.87H1373.59V459.873H1440V457.87ZM1374.59 458.871V392.461H1372.59V458.871H1374.59Z" fill="#F8F8F8" mask="url(#path-167-inside-14_7283_9384)"/>
<mask id="path-169-inside-15_7283_9384" fill="white">
<path d="M0 457.871H66.4102V524.282H0V457.871Z"/>
</mask>
<path d="M66.4102 457.871H67.4113V456.87H66.4102V457.871ZM66.4102 524.282V525.283H67.4113V524.282H66.4102ZM0 458.872H66.4102V456.87H0V458.872ZM65.409 457.871V524.282H67.4113V457.871H65.409ZM66.4102 523.28H0V525.283H66.4102V523.28Z" fill="#F8F8F8" mask="url(#path-169-inside-15_7283_9384)"/>
<rect x="65.9098" y="458.372" width="65.409" height="65.409" stroke="#F8F8F8" stroke-width="1.00115"/>
<rect x="131.319" y="458.372" width="65.409" height="65.409" stroke="#F8F8F8" stroke-width="1.00115"/>
<rect x="196.728" y="458.372" width="65.409" height="65.409" stroke="#F8F8F8" stroke-width="1.00115"/>
<rect x="262.136" y="458.372" width="65.409" height="65.409" stroke="#F8F8F8" stroke-width="1.00115"/>
<rect x="327.545" y="458.372" width="65.409" height="65.409" stroke="#F8F8F8" stroke-width="1.00115"/>
<rect x="392.955" y="458.372" width="65.409" height="65.409" stroke="#F8F8F8" stroke-width="1.00115"/>
<rect x="458.364" y="458.372" width="65.409" height="65.409" stroke="#F8F8F8" stroke-width="1.00115"/>
<rect x="523.773" y="458.372" width="65.409" height="65.409" stroke="#F8F8F8" stroke-width="1.00115"/>
<rect x="589.182" y="458.372" width="65.409" height="65.409" stroke="#F8F8F8" stroke-width="1.00115"/>
<rect x="654.591" y="458.372" width="65.409" height="65.409" stroke="#F8F8F8" stroke-width="1.00115"/>
<rect x="720" y="458.372" width="65.409" height="65.409" stroke="#F8F8F8" stroke-width="1.00115"/>
<rect x="785.409" y="458.372" width="65.409" height="65.409" stroke="#F8F8F8" stroke-width="1.00115"/>
<rect x="850.818" y="458.372" width="65.409" height="65.409" stroke="#F8F8F8" stroke-width="1.00115"/>
<rect x="916.227" y="458.372" width="65.409" height="65.409" stroke="#F8F8F8" stroke-width="1.00115"/>
<rect x="981.636" y="458.372" width="65.409" height="65.409" stroke="#F8F8F8" stroke-width="1.00115"/>
<rect x="1047.05" y="458.372" width="65.409" height="65.409" stroke="#F8F8F8" stroke-width="1.00115"/>
<rect x="1112.45" y="458.372" width="65.409" height="65.409" stroke="#F8F8F8" stroke-width="1.00115"/>
<rect x="1177.86" y="458.372" width="65.409" height="65.409" stroke="#F8F8F8" stroke-width="1.00115"/>
<rect x="1243.27" y="458.372" width="65.409" height="65.409" stroke="#F8F8F8" stroke-width="1.00115"/>
<rect x="1308.68" y="458.372" width="65.409" height="65.409" stroke="#F8F8F8" stroke-width="1.00115"/>
<mask id="path-191-inside-16_7283_9384" fill="white">
<path d="M1373.59 457.871H1440V524.282H1373.59V457.871Z"/>
</mask>
<path d="M1373.59 457.871V456.87H1372.59V457.871H1373.59ZM1373.59 524.282H1372.59V525.283H1373.59V524.282ZM1373.59 458.872H1440V456.87H1373.59V458.872ZM1440 523.28H1373.59V525.283H1440V523.28ZM1374.59 524.282V457.871H1372.59V524.282H1374.59Z" fill="#F8F8F8" mask="url(#path-191-inside-16_7283_9384)"/>
<mask id="path-193-inside-17_7283_9384" fill="white">
<path d="M0 523.281H66.4102V589.692H0V523.281Z"/>
</mask>
<path d="M66.4102 523.281H67.4113V522.28H66.4102V523.281ZM66.4102 589.692V590.693H67.4113V589.692H66.4102ZM0 524.283H66.4102V522.28H0V524.283ZM65.409 523.281V589.692H67.4113V523.281H65.409ZM66.4102 588.691H0V590.693H66.4102V588.691Z" fill="#F8F8F8" mask="url(#path-193-inside-17_7283_9384)"/>
<rect x="65.9098" y="523.782" width="65.409" height="65.409" stroke="#F8F8F8" stroke-width="1.00115"/>
<rect x="131.319" y="523.782" width="65.409" height="65.409" stroke="#F8F8F8" stroke-width="1.00115"/>
<rect x="196.728" y="523.782" width="65.409" height="65.409" stroke="#F8F8F8" stroke-width="1.00115"/>
<rect x="262.136" y="523.782" width="65.409" height="65.409" stroke="#F8F8F8" stroke-width="1.00115"/>
<rect x="327.545" y="523.782" width="65.409" height="65.409" stroke="#F8F8F8" stroke-width="1.00115"/>
<rect x="392.955" y="523.782" width="65.409" height="65.409" stroke="#F8F8F8" stroke-width="1.00115"/>
<rect x="458.364" y="523.782" width="65.409" height="65.409" stroke="#F8F8F8" stroke-width="1.00115"/>
<rect x="523.773" y="523.782" width="65.409" height="65.409" stroke="#F8F8F8" stroke-width="1.00115"/>
<rect x="589.182" y="523.782" width="65.409" height="65.409" stroke="#F8F8F8" stroke-width="1.00115"/>
<rect x="654.591" y="523.782" width="65.409" height="65.409" stroke="#F8F8F8" stroke-width="1.00115"/>
<rect x="720" y="523.782" width="65.409" height="65.409" stroke="#F8F8F8" stroke-width="1.00115"/>
<rect x="785.409" y="523.782" width="65.409" height="65.409" stroke="#F8F8F8" stroke-width="1.00115"/>
<rect x="850.818" y="523.782" width="65.409" height="65.409" stroke="#F8F8F8" stroke-width="1.00115"/>
<rect x="916.227" y="523.782" width="65.409" height="65.409" stroke="#F8F8F8" stroke-width="1.00115"/>
<rect x="981.636" y="523.782" width="65.409" height="65.409" stroke="#F8F8F8" stroke-width="1.00115"/>
<rect x="1047.05" y="523.782" width="65.409" height="65.409" stroke="#F8F8F8" stroke-width="1.00115"/>
<rect x="1112.45" y="523.782" width="65.409" height="65.409" stroke="#F8F8F8" stroke-width="1.00115"/>
<rect x="1177.86" y="523.782" width="65.409" height="65.409" stroke="#F8F8F8" stroke-width="1.00115"/>
<rect x="1243.27" y="523.782" width="65.409" height="65.409" stroke="#F8F8F8" stroke-width="1.00115"/>
<rect x="1308.68" y="523.782" width="65.409" height="65.409" stroke="#F8F8F8" stroke-width="1.00115"/>
<mask id="path-215-inside-18_7283_9384" fill="white">
<path d="M1373.59 523.281H1440V589.692H1373.59V523.281Z"/>
</mask>
<path d="M1373.59 523.281V522.28H1372.59V523.281H1373.59ZM1373.59 589.692H1372.59V590.693H1373.59V589.692ZM1373.59 524.283H1440V522.28H1373.59V524.283ZM1440 588.691H1373.59V590.693H1440V588.691ZM1374.59 589.692V523.281H1372.59V589.692H1374.59Z" fill="#F8F8F8" mask="url(#path-215-inside-18_7283_9384)"/>
<mask id="path-217-inside-19_7283_9384" fill="white">
<path d="M0 588.692H66.4102V655.102H0V588.692Z"/>
</mask>
<path d="M66.4102 588.692H67.4113V587.691H66.4102V588.692ZM66.4102 655.102V656.103H67.4113V655.102H66.4102ZM0 589.693H66.4102V587.691H0V589.693ZM65.409 588.692V655.102H67.4113V588.692H65.409ZM66.4102 654.101H0V656.103H66.4102V654.101Z" fill="#F8F8F8" mask="url(#path-217-inside-19_7283_9384)"/>
<rect x="65.9098" y="589.192" width="65.409" height="65.409" stroke="#F8F8F8" stroke-width="1.00115"/>
<rect x="131.319" y="589.192" width="65.409" height="65.409" stroke="#F8F8F8" stroke-width="1.00115"/>
<rect x="196.728" y="589.192" width="65.409" height="65.409" stroke="#F8F8F8" stroke-width="1.00115"/>
<rect x="262.136" y="589.192" width="65.409" height="65.409" stroke="#F8F8F8" stroke-width="1.00115"/>
<rect x="327.545" y="589.192" width="65.409" height="65.409" stroke="#F8F8F8" stroke-width="1.00115"/>
<rect x="392.955" y="589.192" width="65.409" height="65.409" stroke="#F8F8F8" stroke-width="1.00115"/>
<rect x="458.364" y="589.192" width="65.409" height="65.409" stroke="#F8F8F8" stroke-width="1.00115"/>
<rect x="523.773" y="589.192" width="65.409" height="65.409" stroke="#F8F8F8" stroke-width="1.00115"/>
<rect x="589.182" y="589.192" width="65.409" height="65.409" stroke="#F8F8F8" stroke-width="1.00115"/>
<rect x="654.591" y="589.192" width="65.409" height="65.409" stroke="#F8F8F8" stroke-width="1.00115"/>
<rect x="720" y="589.192" width="65.409" height="65.409" stroke="#F8F8F8" stroke-width="1.00115"/>
<rect x="785.409" y="589.192" width="65.409" height="65.409" stroke="#F8F8F8" stroke-width="1.00115"/>
<rect x="850.818" y="589.192" width="65.409" height="65.409" stroke="#F8F8F8" stroke-width="1.00115"/>
<rect x="916.227" y="589.192" width="65.409" height="65.409" stroke="#F8F8F8" stroke-width="1.00115"/>
<rect x="981.636" y="589.192" width="65.409" height="65.409" stroke="#F8F8F8" stroke-width="1.00115"/>
<rect x="1047.05" y="589.192" width="65.409" height="65.409" stroke="#F8F8F8" stroke-width="1.00115"/>
<rect x="1112.45" y="589.192" width="65.409" height="65.409" stroke="#F8F8F8" stroke-width="1.00115"/>
<rect x="1177.86" y="589.192" width="65.409" height="65.409" stroke="#F8F8F8" stroke-width="1.00115"/>
<rect x="1243.27" y="589.192" width="65.409" height="65.409" stroke="#F8F8F8" stroke-width="1.00115"/>
<rect x="1308.68" y="589.192" width="65.409" height="65.409" stroke="#F8F8F8" stroke-width="1.00115"/>
<mask id="path-239-inside-20_7283_9384" fill="white">
<path d="M1373.59 588.692H1440V655.102H1373.59V588.692Z"/>
</mask>
<path d="M1373.59 588.692V587.691H1372.59V588.692H1373.59ZM1373.59 655.102H1372.59V656.103H1373.59V655.102ZM1373.59 589.693H1440V587.691H1373.59V589.693ZM1440 654.101H1373.59V656.103H1440V654.101ZM1374.59 655.102V588.692H1372.59V655.102H1374.59Z" fill="#F8F8F8" mask="url(#path-239-inside-20_7283_9384)"/>
<mask id="path-241-inside-21_7283_9384" fill="white">
<path d="M0 654.102H66.4102V720.512H0V654.102Z"/>
</mask>
<path d="M66.4102 654.102H67.4113V653.101H66.4102V654.102ZM66.4102 720.512V721.513H67.4113V720.512H66.4102ZM0 655.103H66.4102V653.101H0V655.103ZM65.409 654.102V720.512H67.4113V654.102H65.409ZM66.4102 719.511H0V721.513H66.4102V719.511Z" fill="#F8F8F8" mask="url(#path-241-inside-21_7283_9384)"/>
<rect x="65.9098" y="654.603" width="65.409" height="65.409" stroke="#F8F8F8" stroke-width="1.00115"/>
<rect x="131.319" y="654.603" width="65.409" height="65.409" stroke="#F8F8F8" stroke-width="1.00115"/>
<rect x="196.728" y="654.603" width="65.409" height="65.409" stroke="#F8F8F8" stroke-width="1.00115"/>
<rect x="262.136" y="654.603" width="65.409" height="65.409" stroke="#F8F8F8" stroke-width="1.00115"/>
<rect x="327.545" y="654.603" width="65.409" height="65.409" stroke="#F8F8F8" stroke-width="1.00115"/>
<rect x="392.955" y="654.603" width="65.409" height="65.409" stroke="#F8F8F8" stroke-width="1.00115"/>
<rect x="458.364" y="654.603" width="65.409" height="65.409" stroke="#F8F8F8" stroke-width="1.00115"/>
<rect x="523.773" y="654.603" width="65.409" height="65.409" stroke="#F8F8F8" stroke-width="1.00115"/>
<rect x="589.182" y="654.603" width="65.409" height="65.409" stroke="#F8F8F8" stroke-width="1.00115"/>
<rect x="654.591" y="654.603" width="65.409" height="65.409" stroke="#F8F8F8" stroke-width="1.00115"/>
<rect x="720" y="654.603" width="65.409" height="65.409" stroke="#F8F8F8" stroke-width="1.00115"/>
<rect x="785.409" y="654.603" width="65.409" height="65.409" stroke="#F8F8F8" stroke-width="1.00115"/>
<rect x="850.818" y="654.603" width="65.409" height="65.409" stroke="#F8F8F8" stroke-width="1.00115"/>
<rect x="916.227" y="654.603" width="65.409" height="65.409" stroke="#F8F8F8" stroke-width="1.00115"/>
<rect x="981.636" y="654.603" width="65.409" height="65.409" stroke="#F8F8F8" stroke-width="1.00115"/>
<rect x="1047.05" y="654.603" width="65.409" height="65.409" stroke="#F8F8F8" stroke-width="1.00115"/>
<rect x="1112.45" y="654.603" width="65.409" height="65.409" stroke="#F8F8F8" stroke-width="1.00115"/>
<rect x="1177.86" y="654.603" width="65.409" height="65.409" stroke="#F8F8F8" stroke-width="1.00115"/>
<rect x="1243.27" y="654.603" width="65.409" height="65.409" stroke="#F8F8F8" stroke-width="1.00115"/>
<rect x="1308.68" y="654.603" width="65.409" height="65.409" stroke="#F8F8F8" stroke-width="1.00115"/>
<mask id="path-263-inside-22_7283_9384" fill="white">
<path d="M1373.59 654.102H1440V720.512H1373.59V654.102Z"/>
</mask>
<path d="M1373.59 654.102V653.101H1372.59V654.102H1373.59ZM1373.59 720.512H1372.59V721.513H1373.59V720.512ZM1373.59 655.103H1440V653.101H1373.59V655.103ZM1440 719.511H1373.59V721.513H1440V719.511ZM1374.59 720.512V654.102H1372.59V720.512H1374.59Z" fill="#F8F8F8" mask="url(#path-263-inside-22_7283_9384)"/>
<mask id="path-265-inside-23_7283_9384" fill="white">
<path d="M0 719.512H66.4102V785.922H0V719.512Z"/>
</mask>
<path d="M66.4102 719.512H67.4113V718.511H66.4102V719.512ZM66.4102 785.922V786.924H67.4113V785.922H66.4102ZM0 720.513H66.4102V718.511H0V720.513ZM65.409 719.512V785.922H67.4113V719.512H65.409ZM66.4102 784.921H0V786.924H66.4102V784.921Z" fill="#F8F8F8" mask="url(#path-265-inside-23_7283_9384)"/>
<rect x="65.9098" y="720.013" width="65.409" height="65.409" stroke="#F8F8F8" stroke-width="1.00115"/>
<rect x="131.319" y="720.013" width="65.409" height="65.409" stroke="#F8F8F8" stroke-width="1.00115"/>
<rect x="196.728" y="720.013" width="65.409" height="65.409" stroke="#F8F8F8" stroke-width="1.00115"/>
<rect x="262.136" y="720.013" width="65.409" height="65.409" stroke="#F8F8F8" stroke-width="1.00115"/>
<rect x="327.545" y="720.013" width="65.409" height="65.409" stroke="#F8F8F8" stroke-width="1.00115"/>
<rect x="392.955" y="720.013" width="65.409" height="65.409" stroke="#F8F8F8" stroke-width="1.00115"/>
<rect x="458.364" y="720.013" width="65.409" height="65.409" stroke="#F8F8F8" stroke-width="1.00115"/>
<rect x="523.773" y="720.013" width="65.409" height="65.409" stroke="#F8F8F8" stroke-width="1.00115"/>
<rect x="589.182" y="720.013" width="65.409" height="65.409" stroke="#F8F8F8" stroke-width="1.00115"/>
<rect x="654.591" y="720.013" width="65.409" height="65.409" stroke="#F8F8F8" stroke-width="1.00115"/>
<rect x="720" y="720.013" width="65.409" height="65.409" stroke="#F8F8F8" stroke-width="1.00115"/>
<rect x="785.409" y="720.013" width="65.409" height="65.409" stroke="#F8F8F8" stroke-width="1.00115"/>
<rect x="850.818" y="720.013" width="65.409" height="65.409" stroke="#F8F8F8" stroke-width="1.00115"/>
<rect x="916.227" y="720.013" width="65.409" height="65.409" stroke="#F8F8F8" stroke-width="1.00115"/>
<rect x="981.636" y="720.013" width="65.409" height="65.409" stroke="#F8F8F8" stroke-width="1.00115"/>
<rect x="1047.05" y="720.013" width="65.409" height="65.409" stroke="#F8F8F8" stroke-width="1.00115"/>
<rect x="1112.45" y="720.013" width="65.409" height="65.409" stroke="#F8F8F8" stroke-width="1.00115"/>
<rect x="1177.86" y="720.013" width="65.409" height="65.409" stroke="#F8F8F8" stroke-width="1.00115"/>
<rect x="1243.27" y="720.013" width="65.409" height="65.409" stroke="#F8F8F8" stroke-width="1.00115"/>
<rect x="1308.68" y="720.013" width="65.409" height="65.409" stroke="#F8F8F8" stroke-width="1.00115"/>
<mask id="path-287-inside-24_7283_9384" fill="white">
<path d="M1373.59 719.512H1440V785.922H1373.59V719.512Z"/>
</mask>
<path d="M1373.59 719.512V718.511H1372.59V719.512H1373.59ZM1373.59 785.922H1372.59V786.924H1373.59V785.922ZM1373.59 720.513H1440V718.511H1373.59V720.513ZM1440 784.921H1373.59V786.924H1440V784.921ZM1374.59 785.922V719.512H1372.59V785.922H1374.59Z" fill="#F8F8F8" mask="url(#path-287-inside-24_7283_9384)"/>
<mask id="path-289-inside-25_7283_9384" fill="white">
<path d="M0 784.922H66.4102V851.333H0V784.922Z"/>
</mask>
<path d="M66.4102 784.922H67.4113V783.921H66.4102V784.922ZM66.4102 851.333V852.334H67.4113V851.333H66.4102ZM0 785.924H66.4102V783.921H0V785.924ZM65.409 784.922V851.333H67.4113V784.922H65.409ZM66.4102 850.331H0V852.334H66.4102V850.331Z" fill="#F8F8F8" mask="url(#path-289-inside-25_7283_9384)"/>
<rect x="65.9098" y="785.423" width="65.409" height="65.409" stroke="#F8F8F8" stroke-width="1.00115"/>
<rect x="131.319" y="785.423" width="65.409" height="65.409" stroke="#F8F8F8" stroke-width="1.00115"/>
<rect x="196.728" y="785.423" width="65.409" height="65.409" stroke="#F8F8F8" stroke-width="1.00115"/>
<rect x="262.136" y="785.423" width="65.409" height="65.409" stroke="#F8F8F8" stroke-width="1.00115"/>
<rect x="327.545" y="785.423" width="65.409" height="65.409" stroke="#F8F8F8" stroke-width="1.00115"/>
<rect x="392.955" y="785.423" width="65.409" height="65.409" stroke="#F8F8F8" stroke-width="1.00115"/>
<rect x="458.364" y="785.423" width="65.409" height="65.409" stroke="#F8F8F8" stroke-width="1.00115"/>
<rect x="523.773" y="785.423" width="65.409" height="65.409" stroke="#F8F8F8" stroke-width="1.00115"/>
<rect x="589.182" y="785.423" width="65.409" height="65.409" stroke="#F8F8F8" stroke-width="1.00115"/>
<rect x="654.591" y="785.423" width="65.409" height="65.409" stroke="#F8F8F8" stroke-width="1.00115"/>
<rect x="720" y="785.423" width="65.409" height="65.409" stroke="#F8F8F8" stroke-width="1.00115"/>
<rect x="785.409" y="785.423" width="65.409" height="65.409" stroke="#F8F8F8" stroke-width="1.00115"/>
<rect x="850.818" y="785.423" width="65.409" height="65.409" stroke="#F8F8F8" stroke-width="1.00115"/>
<rect x="916.227" y="785.423" width="65.409" height="65.409" stroke="#F8F8F8" stroke-width="1.00115"/>
<rect x="981.636" y="785.423" width="65.409" height="65.409" stroke="#F8F8F8" stroke-width="1.00115"/>
<rect x="1047.05" y="785.423" width="65.409" height="65.409" stroke="#F8F8F8" stroke-width="1.00115"/>
<rect x="1112.45" y="785.423" width="65.409" height="65.409" stroke="#F8F8F8" stroke-width="1.00115"/>
<rect x="1177.86" y="785.423" width="65.409" height="65.409" stroke="#F8F8F8" stroke-width="1.00115"/>
<rect x="1243.27" y="785.423" width="65.409" height="65.409" stroke="#F8F8F8" stroke-width="1.00115"/>
<rect x="1308.68" y="785.423" width="65.409" height="65.409" stroke="#F8F8F8" stroke-width="1.00115"/>
<mask id="path-311-inside-26_7283_9384" fill="white">
<path d="M1373.59 784.922H1440V851.333H1373.59V784.922Z"/>
</mask>
<path d="M1373.59 784.922V783.921H1372.59V784.922H1373.59ZM1373.59 851.333H1372.59V852.334H1373.59V851.333ZM1373.59 785.924H1440V783.921H1373.59V785.924ZM1440 850.331H1373.59V852.334H1440V850.331ZM1374.59 851.333V784.922H1372.59V851.333H1374.59Z" fill="#F8F8F8" mask="url(#path-311-inside-26_7283_9384)"/>
<mask id="path-313-inside-27_7283_9384" fill="white">
<path d="M0 850.333H66.4102V916.743H0V850.333Z"/>
</mask>
<path d="M66.4102 850.333H67.4113V849.331H66.4102V850.333ZM66.4102 916.743V917.744H67.4113V916.743H66.4102ZM0 851.334H66.4102V849.331H0V851.334ZM65.409 850.333V916.743H67.4113V850.333H65.409ZM66.4102 915.742H0V917.744H66.4102V915.742Z" fill="#F8F8F8" mask="url(#path-313-inside-27_7283_9384)"/>
<rect x="65.9098" y="850.833" width="65.409" height="65.409" stroke="#F8F8F8" stroke-width="1.00115"/>
<rect x="131.319" y="850.833" width="65.409" height="65.409" stroke="#F8F8F8" stroke-width="1.00115"/>
<rect x="196.728" y="850.833" width="65.409" height="65.409" stroke="#F8F8F8" stroke-width="1.00115"/>
<rect x="262.136" y="850.833" width="65.409" height="65.409" stroke="#F8F8F8" stroke-width="1.00115"/>
<rect x="327.545" y="850.833" width="65.409" height="65.409" stroke="#F8F8F8" stroke-width="1.00115"/>
<rect x="392.955" y="850.833" width="65.409" height="65.409" stroke="#F8F8F8" stroke-width="1.00115"/>
<rect x="458.364" y="850.833" width="65.409" height="65.409" stroke="#F8F8F8" stroke-width="1.00115"/>
<rect x="523.773" y="850.833" width="65.409" height="65.409" stroke="#F8F8F8" stroke-width="1.00115"/>
<rect x="589.182" y="850.833" width="65.409" height="65.409" stroke="#F8F8F8" stroke-width="1.00115"/>
<rect x="654.591" y="850.833" width="65.409" height="65.409" stroke="#F8F8F8" stroke-width="1.00115"/>
<rect x="720" y="850.833" width="65.409" height="65.409" stroke="#F8F8F8" stroke-width="1.00115"/>
<rect x="785.409" y="850.833" width="65.409" height="65.409" stroke="#F8F8F8" stroke-width="1.00115"/>
<rect x="850.818" y="850.833" width="65.409" height="65.409" stroke="#F8F8F8" stroke-width="1.00115"/>
<rect x="916.227" y="850.833" width="65.409" height="65.409" stroke="#F8F8F8" stroke-width="1.00115"/>
<rect x="981.636" y="850.833" width="65.409" height="65.409" stroke="#F8F8F8" stroke-width="1.00115"/>
<rect x="1047.05" y="850.833" width="65.409" height="65.409" stroke="#F8F8F8" stroke-width="1.00115"/>
<rect x="1112.45" y="850.833" width="65.409" height="65.409" stroke="#F8F8F8" stroke-width="1.00115"/>
<rect x="1177.86" y="850.833" width="65.409" height="65.409" stroke="#F8F8F8" stroke-width="1.00115"/>
<rect x="1243.27" y="850.833" width="65.409" height="65.409" stroke="#F8F8F8" stroke-width="1.00115"/>
<rect x="1308.68" y="850.833" width="65.409" height="65.409" stroke="#F8F8F8" stroke-width="1.00115"/>
<mask id="path-335-inside-28_7283_9384" fill="white">
<path d="M1373.59 850.333H1440V916.743H1373.59V850.333Z"/>
</mask>
<path d="M1373.59 850.333V849.331H1372.59V850.333H1373.59ZM1373.59 916.743H1372.59V917.744H1373.59V916.743ZM1373.59 851.334H1440V849.331H1373.59V851.334ZM1440 915.742H1373.59V917.744H1440V915.742ZM1374.59 916.743V850.333H1372.59V916.743H1374.59Z" fill="#F8F8F8" mask="url(#path-335-inside-28_7283_9384)"/>
</svg>
