<svg width="50" height="50" viewBox="0 0 50 50" fill="none" xmlns="http://www.w3.org/2000/svg">
<path d="M32.58 11.1989C29.848 10.4668 27.1159 9.73476 24.3839 9.00271C20.6683 8.00712 16.3346 8.58084 13.0004 10.5058C9.81339 12.3458 6.82653 15.9525 6.00682 19.6127C5.16784 23.3995 5.35409 27.6221 7.50998 30.9962C9.65586 34.353 12.6963 36.9392 16.6168 37.9897L24.813 40.1859C28.5285 41.1815 32.8623 40.6078 36.1965 38.6828C39.3835 36.8428 42.3703 33.2361 43.19 29.5759C44.029 25.7891 43.8428 21.5665 41.6869 18.1924C39.541 14.8356 36.5055 12.258 32.58 11.1989Z" fill="#FF971E"/>
</svg>
