<svg width="123" height="242" viewBox="0 0 123 242" fill="none" xmlns="http://www.w3.org/2000/svg">
<path d="M97.136 137.422C71.1346 158.421 42.4911 177.374 13.355 192.401C7.22923 195.563 3.26531 201.937 5.87368 209.034C8.06461 215.01 16.1184 219.849 22.2852 216.669C54.0019 200.309 84.0665 181.047 111.904 158.56C117.281 154.221 119.065 146.463 114.919 140.53C111.09 135.058 102.539 133.052 97.136 137.422Z" fill="#FB0F5A"/>
<path d="M47.1561 38.4754C49.912 39.1117 52.668 39.7479 55.4239 40.3842C59.172 41.2495 63.483 40.5249 66.748 38.4847C69.8688 36.5346 72.728 32.8259 73.4195 29.1393C74.1258 25.3255 73.7923 21.112 71.52 17.8152C69.2582 14.5353 66.1294 12.0568 62.1746 11.1437L53.9068 9.23496C50.1587 8.36965 45.8476 9.09427 42.5826 11.1345C39.4618 13.0846 36.6027 16.7932 35.9112 20.4798C35.2049 24.2936 35.5384 28.5072 37.8107 31.804C40.0724 35.0838 43.196 37.5539 47.1561 38.4754Z" fill="#FF971E"/>
</svg>
