<svg width="180" height="202" viewBox="0 0 180 202" fill="none" xmlns="http://www.w3.org/2000/svg">
<path d="M154.111 107.942C147.264 102.286 138.675 99.29 129.725 100.083C121.687 100.791 114.353 103.668 106.904 106.503C103.42 107.83 99.9045 109.114 96.2818 110.055C95.3668 110.292 94.4414 110.511 93.5139 110.695C93.1877 110.763 91.7865 110.99 91.8107 111C90.0759 111.208 88.3121 111.281 86.5693 111.191C86.1626 111.171 85.7618 111.13 85.3571 111.103C85.2931 111.098 85.2317 111.097 85.1795 111.091C85.1481 111.078 85.1123 111.069 85.0665 111.053C84.3173 110.819 83.4712 110.744 82.7051 110.544C81.8267 110.318 80.9579 110.056 80.108 109.753C79.9179 109.687 79.7271 109.61 79.5389 109.537C79.55 109.524 78.5705 109.102 78.4515 109.044C76.998 108.338 75.5991 107.516 74.2658 106.607C74.2952 106.627 73.687 106.184 73.4116 105.992C73.2435 105.858 73.0604 105.71 73.0035 105.664C72.2276 105.015 71.4804 104.332 70.7643 103.618C70.121 102.978 69.5043 102.31 68.9123 101.622C68.6995 101.369 68.4913 101.114 68.2804 100.854C68.2339 100.784 68.1821 100.705 68.1126 100.605C67.0973 99.0891 66.2204 97.5596 65.3674 95.9558C65.3143 95.8532 65.2697 95.776 65.2349 95.7052C65.0726 95.3081 64.922 94.9104 64.7805 94.5074C64.4812 93.6624 64.219 92.808 64.0031 91.939C63.8222 91.2255 63.6786 90.5027 63.5512 89.7765C63.5471 89.7061 63.5403 89.6313 63.5374 89.542C63.4953 88.9424 63.4486 88.3453 63.4299 87.7441C63.2257 80.9127 64.9483 74.1322 64.1738 67.3029C63.6289 62.504 62.1106 58.0732 58.8233 54.3911C54.8092 49.8927 49.0093 48.0732 43.151 47.5537C37.7126 47.0766 32.1637 47.9355 26.7586 48.4327C20.861 48.972 14.9634 49.5112 9.06571 50.0505C5.40994 50.386 2.29436 52.9421 2.32619 56.7891C2.3567 60.1704 5.51791 63.792 9.19261 63.4578C18.9548 62.5655 28.8013 61.2186 38.6048 60.872C39.647 60.8337 40.6885 60.8262 41.7328 60.8654C42.163 60.8837 42.6003 60.9038 43.0318 60.9455C43.1912 60.9686 43.6847 61.023 43.7323 61.0318C44.593 61.1953 45.472 61.3906 46.3024 61.6806C46.4069 61.7354 46.8787 61.9417 46.9473 61.9868C46.9571 61.9933 48.1728 62.8243 48.1079 62.7224C48.4731 63.0811 49.1816 63.908 49.0674 63.6892C49.3578 64.1395 49.6163 64.6082 49.8865 65.0763C49.9832 65.3597 50.0845 65.6405 50.1676 65.9318C50.2678 66.2739 50.3562 66.6166 50.4374 66.9575C50.4758 67.1292 50.5944 67.9877 50.6147 68.0123C51.134 74.3468 49.7754 80.6203 49.8064 86.9518C49.8421 94.45 52.3748 101.955 56.8809 108.011C61.6818 114.472 67.925 119.314 75.4818 122.27C82.8263 125.142 90.7687 125.101 98.367 123.367C105.465 121.747 112.094 118.683 118.935 116.291C122.162 115.161 125.432 114.23 128.806 113.627C128.498 113.696 130.201 113.464 130.464 113.445C131.277 113.388 132.093 113.359 132.907 113.368C133.718 113.372 134.521 113.436 135.333 113.494C135.359 113.497 135.385 113.5 135.407 113.506C136.062 113.63 136.711 113.753 137.361 113.91C137.801 114.02 138.238 114.144 138.67 114.282C138.759 114.309 139.368 114.521 139.704 114.63C139.949 114.737 140.37 114.918 140.452 114.955C140.959 115.202 141.462 115.463 141.954 115.736C142.896 116.271 143.828 116.853 144.694 117.511C144.771 117.581 144.869 117.676 144.996 117.791C145.49 118.257 146.011 118.695 146.489 119.177C148.191 120.872 148.388 121.085 149.641 123.13C150.233 124.092 150.775 125.093 151.24 126.121C151.116 125.842 150.913 125.165 151.342 126.414C151.527 126.943 151.718 127.475 151.877 128.014C154.298 136.073 152.206 144.079 146.909 151.208C144.809 154.039 146.324 158.811 149.351 160.389C152.892 162.234 156.404 161.049 158.657 158.021C169.777 143.028 169.148 120.356 154.111 107.942Z" fill="#770FFB"/>
</svg>
