<svg width="155" height="153" viewBox="0 0 155 153" fill="none" xmlns="http://www.w3.org/2000/svg">
<path d="M103.277 151.864C107.639 149.282 108.404 144.131 106.397 139.804C101.297 128.794 95.9998 117.885 90.511 107.079C96.9965 105.076 103.516 103.182 110.063 101.39C113.79 109.627 117.463 117.885 121.054 126.177C122.945 130.538 129.24 131.546 132.96 129.339C137.398 126.709 137.978 121.653 136.08 117.279C133.138 110.493 130.134 103.727 127.103 96.9747C134.25 95.2304 141.432 93.6089 148.641 92.1167C153.249 91.1629 155.905 85.6439 154.717 81.2765C153.4 76.4253 148.635 74.1633 144.013 75.1172C135.862 76.8001 127.751 78.6601 119.682 80.6633C115.238 71.0359 110.712 61.4494 106.09 51.9106C113.005 50.3435 119.935 48.8445 126.884 47.4273C131.492 46.487 134.148 40.9409 132.96 36.5871C131.643 31.7291 126.877 29.4875 122.256 30.4277C114.193 32.0766 106.151 33.8276 98.1297 35.6741C92.9072 25.1677 87.5891 14.7091 82.1482 4.31175C79.9499 0.107855 74.1744 -1.17986 70.2422 1.15034C66.0369 3.64407 64.9104 8.98578 67.1223 13.2101C71.7441 22.0472 76.2839 30.9251 80.7487 39.8371C72.7408 41.8334 64.7602 43.9388 56.807 46.1259C50.9564 36.3759 44.9488 26.7212 38.7705 17.1824C36.1968 13.2033 31.0699 11.5272 26.8646 14.0209C22.9596 16.3307 21.1505 22.0812 23.7447 26.0807C29.0901 34.3386 34.3058 42.6783 39.4054 51.0929C28.3392 54.3566 17.3275 57.8042 6.3841 61.4562C1.91936 62.9415 -0.982042 67.5474 0.308227 72.2964C1.50975 76.7251 6.53429 79.9479 11.0127 78.4557C23.4921 74.2927 36.0535 70.3886 48.6899 66.723C54.4517 76.6366 60.0429 86.6524 65.4634 96.7567C52.7314 101.165 40.1359 105.982 27.6974 111.201C23.3556 113.02 20.263 117.047 21.6216 122.041C22.748 126.191 27.9568 130.034 32.326 128.201C45.9455 122.484 59.7562 117.252 73.7307 112.509C79.8543 124.447 85.7459 136.506 91.3848 148.689C93.3646 153.009 99.4814 154.112 103.277 151.864ZM66.0573 61.8718C73.601 59.8346 81.1583 57.8723 88.7497 56.0122C93.467 65.6873 98.0956 75.4033 102.635 85.167C95.8154 87.068 89.0228 89.0847 82.271 91.2105C77.028 81.3378 71.628 71.5537 66.0573 61.8718Z" fill="#FB0F5A"/>
</svg>
