<svg width="120" height="118" viewBox="0 0 120 118" fill="none" xmlns="http://www.w3.org/2000/svg">
<path d="M79.9565 117.124C83.3338 115.132 83.9258 111.159 82.3719 107.823C78.4238 99.3309 74.3224 90.9179 70.073 82.5838C75.0941 81.0388 80.1415 79.578 85.2101 78.196C88.0958 84.5491 90.9393 90.9179 93.7194 97.313C95.1834 100.676 100.056 101.454 102.937 99.7512C106.372 97.7229 106.822 93.8238 105.352 90.4502C103.074 85.2164 100.749 79.9984 98.4021 74.7909C103.936 73.4456 109.496 72.195 115.077 71.0442C118.645 70.3085 120.701 66.0521 119.781 62.6838C118.761 58.9423 115.072 57.1977 111.494 57.9334C105.183 59.2314 98.9042 60.6659 92.657 62.2108C89.2163 54.7858 85.7122 47.3922 82.134 40.0355C87.488 38.8269 92.8526 37.6708 98.233 36.5778C101.801 35.8527 103.857 31.5752 102.937 28.2174C101.917 24.4707 98.2277 22.7419 94.6496 23.467C88.4077 24.7387 82.1816 26.0892 75.9714 27.5133C71.9282 19.4103 67.8109 11.3442 63.5986 3.32531C61.8967 0.0830883 57.4254 -0.910048 54.381 0.8871C51.1253 2.81036 50.2532 6.93012 51.9657 10.1881C55.5438 17.0036 59.0585 23.8506 62.5151 30.7239C56.3155 32.2636 50.137 33.8874 43.9796 35.5742C39.4501 28.0545 34.7991 20.6084 30.0159 13.2517C28.0233 10.1829 24.0541 8.89017 20.7984 10.8134C17.7752 12.5948 16.3746 17.0299 18.383 20.1145C22.5214 26.4833 26.5593 32.9152 30.5074 39.4049C21.94 41.922 13.4148 44.5809 4.94253 47.3975C1.48595 48.5431 -0.760291 52.0953 0.238627 55.7579C1.16884 59.1735 5.0588 61.6591 8.52595 60.5083C18.1874 57.2976 27.9124 54.2866 37.6954 51.4595C42.1562 59.1052 46.4848 66.8298 50.6813 74.6227C40.8243 78.0226 31.073 81.7377 21.4432 85.7629C18.0817 87.166 15.6875 90.2716 16.7393 94.1233C17.6113 97.3235 21.644 100.287 25.0266 98.8737C35.5707 94.4649 46.2628 90.4292 57.0818 86.7719C61.8227 95.9783 66.3839 105.279 70.7496 114.675C72.2823 118.006 77.0179 118.858 79.9565 117.124ZM51.1412 47.718C56.9814 46.1469 62.8322 44.6334 68.7094 43.1989C72.3616 50.6607 75.945 58.1541 79.4597 65.6843C74.1797 67.1504 68.9208 68.7058 63.6937 70.3453C59.6346 62.7311 55.454 55.1851 51.1412 47.718Z" fill="#FFCE22"/>
</svg>
